<?xml version="1.0" standalone="no"?>
<!DOCTYPE svg PUBLIC "-//W3C//DTD SVG 20010904//EN"
 "http://www.w3.org/TR/2001/REC-SVG-20010904/DTD/svg10.dtd">
<svg version="1.0" xmlns="http://www.w3.org/2000/svg"
 width="2048.000000pt" height="1085.000000pt" viewBox="0 0 2048.000000 1085.000000"
 preserveAspectRatio="xMidYMid meet">
<metadata>
Created by potrace 1.13, written by Peter Selinger 2001-2015
</metadata>
<g transform="translate(0.000000,1085.000000) scale(0.100000,-0.100000)"
fill="#000000" stroke="none">
<path d="M5075 10198 c-92 -23 -122 -32 -151 -50 -23 -13 -52 -18 -111 -18
-83 0 -132 -14 -186 -52 -15 -11 -51 -26 -79 -33 -28 -8 -59 -23 -69 -34 -11
-12 -32 -24 -47 -27 -15 -4 -34 -12 -42 -20 -31 -26 -116 -61 -152 -62 -43 -2
-93 -31 -158 -91 l-44 -41 -103 0 c-118 0 -148 -10 -163 -56 -11 -33 -26 -44
-63 -44 -12 0 -35 -11 -51 -25 -16 -14 -37 -25 -48 -25 -14 0 -18 -8 -18 -33
0 -21 -8 -41 -19 -51 -18 -16 -21 -16 -45 -1 -39 26 -68 16 -90 -32 -17 -35
-25 -42 -55 -47 -94 -14 -111 -19 -111 -32 0 -7 -6 -17 -13 -21 -8 -4 -16 -16
-20 -26 -4 -9 -19 -22 -34 -28 -15 -6 -46 -19 -68 -30 -22 -10 -58 -23 -80
-29 -22 -5 -51 -17 -65 -27 -31 -23 -87 -43 -120 -43 -34 -1 -75 -37 -94 -82
-11 -27 -21 -38 -36 -38 -12 0 -33 -9 -47 -20 -14 -11 -34 -20 -44 -20 -11 0
-19 -7 -19 -15 0 -8 -6 -15 -13 -15 -7 0 -27 -13 -45 -30 -56 -51 -98 -80
-116 -80 -24 0 -76 -41 -76 -61 0 -16 -66 -69 -87 -69 -6 0 -16 -7 -23 -16 -8
-8 -27 -21 -44 -29 -17 -7 -42 -24 -56 -37 -14 -13 -42 -34 -62 -46 -34 -21
-68 -69 -68 -97 0 -6 14 -26 31 -43 24 -24 40 -32 68 -32 20 0 42 -4 50 -9 17
-11 85 29 120 70 13 16 30 29 37 29 8 0 14 5 14 10 0 6 4 10 9 10 18 0 96 58
135 100 50 55 89 70 177 70 70 0 73 1 109 38 89 89 95 91 232 93 15 0 30 5 33
10 4 5 21 9 40 9 26 0 40 8 63 36 17 20 32 48 35 64 7 33 28 43 62 30 15 -6
26 -6 30 0 4 6 17 10 29 10 32 0 113 37 119 55 4 8 41 31 84 52 l79 39 33 -20
c28 -16 38 -17 65 -8 44 16 56 15 99 -7 56 -29 65 -38 72 -82 4 -23 13 -53 21
-67 8 -15 14 -46 14 -70 0 -30 7 -53 24 -75 27 -36 34 -92 37 -277 2 -84 6
-122 18 -140 10 -16 16 -58 19 -120 2 -52 8 -100 14 -107 6 -7 5 -14 -2 -18
-5 -3 -10 -34 -10 -69 0 -35 -5 -67 -12 -74 -7 -7 -31 -12 -54 -12 -28 0 -44
-5 -48 -15 -3 -9 -18 -15 -35 -15 -24 0 -34 -7 -46 -30 -8 -16 -15 -36 -15
-45 0 -16 3 -16 -200 -19 -144 -3 -204 -11 -257 -36 -24 -11 -50 -20 -59 -20
-9 0 -28 -6 -42 -14 -15 -8 -38 -19 -52 -25 -14 -6 -38 -19 -55 -29 -19 -12
-59 -21 -106 -24 -49 -4 -88 -13 -113 -27 -29 -17 -53 -21 -104 -20 -37 1 -79
-2 -94 -6 -26 -7 -28 -11 -28 -55 0 -27 -3 -55 -6 -63 -9 -24 50 -45 146 -52
47 -3 94 -5 105 -5 80 4 98 1 116 -19 22 -23 35 -26 44 -11 3 6 16 10 29 10
12 0 27 5 34 12 12 12 20 10 95 -28 18 -9 60 -14 111 -14 51 0 87 -5 94 -12 9
-9 21 -3 55 27 49 46 86 69 95 59 4 -4 1 -9 -5 -11 -7 -3 -13 -14 -13 -24 0
-11 -5 -29 -10 -39 -14 -26 35 -74 61 -60 9 5 42 10 73 11 41 2 60 7 73 22 38
43 112 55 150 25 19 -15 -24 -66 -61 -74 -37 -8 -75 -36 -91 -67 -7 -15 -25
-25 -57 -32 -26 -5 -50 -13 -54 -17 -4 -5 -30 -8 -58 -8 -44 0 -58 -5 -98 -37
-25 -21 -48 -46 -51 -55 -3 -10 -11 -20 -19 -22 -70 -22 -119 -46 -158 -77
-25 -20 -57 -40 -71 -44 -13 -4 -33 -14 -44 -21 -11 -8 -31 -14 -45 -14 -25 0
-90 -54 -90 -75 -1 -13 -111 -65 -138 -65 -11 0 -24 -5 -27 -10 -4 -6 -31 -26
-61 -45 -31 -20 -63 -49 -72 -65 -14 -23 -25 -30 -57 -32 -31 -2 -41 -8 -43
-23 -7 -35 -162 -168 -162 -138 0 4 -5 2 -12 -5 -7 -7 -20 -12 -30 -12 -9 0
-23 -10 -29 -22 -7 -13 -18 -27 -25 -31 -8 -4 -14 -16 -14 -26 0 -22 -15 -36
-50 -46 -14 -4 -33 -16 -43 -26 -10 -11 -22 -19 -27 -19 -6 0 -10 -7 -10 -15
0 -8 -21 -25 -47 -38 -27 -13 -52 -32 -58 -43 -20 -39 -41 -61 -63 -67 -29 -7
-38 13 -21 44 18 35 13 77 -12 98 -39 31 -94 13 -152 -51 -26 -29 -52 -62 -58
-73 -31 -62 -69 -105 -104 -119 -9 -3 -19 -15 -22 -26 -3 -11 -9 -20 -14 -20
-5 0 -18 -18 -29 -41 -13 -25 -32 -44 -48 -50 -15 -5 -40 -29 -56 -55 -16 -26
-44 -53 -63 -62 -19 -9 -32 -21 -29 -29 3 -7 1 -15 -4 -18 -6 -4 -10 -19 -10
-35 0 -19 -6 -31 -18 -34 -9 -3 -23 -18 -30 -33 -7 -16 -28 -39 -47 -53 -62
-44 -85 -68 -85 -90 0 -11 -7 -23 -15 -26 -8 -3 -17 -14 -20 -25 -4 -10 -13
-19 -21 -19 -8 0 -14 -6 -14 -14 0 -8 -36 -52 -80 -98 -60 -63 -80 -90 -80
-111 0 -15 -9 -35 -20 -44 -11 -10 -20 -24 -20 -31 0 -16 -31 -75 -42 -80 -5
-2 -8 -10 -8 -18 0 -8 -9 -14 -20 -14 -11 0 -20 -7 -20 -15 0 -9 -9 -19 -19
-23 -28 -10 -71 -78 -71 -112 0 -25 4 -30 24 -30 14 0 28 5 31 10 3 5 15 10
25 10 10 0 28 14 40 30 29 41 67 41 82 0 9 -26 34 -50 52 -50 3 0 19 20 36 45
18 25 47 61 66 80 19 19 34 44 34 57 0 16 25 48 80 101 l80 77 0 64 c0 70 7
81 45 72 46 -12 52 -41 35 -176 -6 -47 -11 -97 -10 -111 0 -14 -9 -38 -20 -52
-13 -16 -20 -40 -20 -66 0 -30 -4 -41 -15 -41 -10 0 -15 -10 -15 -28 0 -20 -8
-32 -29 -45 -28 -16 -31 -16 -61 0 -31 18 -31 18 -58 -12 -35 -39 -60 -111
-45 -133 5 -10 20 -18 32 -20 26 -4 27 -26 1 -52 -11 -11 -20 -24 -20 -28 0
-5 -11 -19 -24 -31 l-24 -23 -14 28 c-22 46 -41 51 -80 21 -33 -26 -34 -29
-30 -80 4 -46 0 -60 -27 -104 -34 -56 -38 -79 -17 -102 8 -9 17 -28 21 -43 6
-23 2 -30 -25 -46 -41 -25 -80 -83 -80 -119 0 -16 -11 -49 -24 -74 -24 -45
-31 -104 -14 -115 4 -3 0 -16 -11 -29 -20 -27 -27 -110 -10 -121 6 -4 6 -11
-2 -20 -9 -11 -10 -45 -6 -122 5 -82 3 -114 -7 -134 -20 -39 -21 -448 -1 -448
26 0 26 -20 0 -67 -25 -43 -26 -54 -21 -128 6 -99 16 -155 26 -155 4 0 11 -15
14 -34 4 -19 13 -40 22 -47 8 -7 22 -25 30 -41 9 -18 22 -28 37 -28 34 0 56
-20 63 -58 6 -27 4 -32 -13 -32 -22 0 -63 -39 -63 -59 0 -28 40 -69 75 -75 19
-4 35 -13 35 -20 0 -20 14 -22 116 -20 51 1 96 -1 101 -5 17 -10 33 -48 33
-75 0 -16 15 -42 37 -67 26 -28 39 -53 42 -82 l6 -42 65 -3 c69 -3 110 -27
110 -64 0 -10 16 -36 36 -58 32 -35 42 -40 80 -40 37 0 44 -3 44 -20 0 -31 22
-70 39 -70 9 1 35 5 59 9 81 16 159 -33 132 -84 -18 -34 -4 -61 50 -94 27 -17
61 -49 76 -71 22 -33 32 -40 59 -40 43 0 120 33 129 55 3 9 6 41 6 71 0 30 4
54 10 54 15 0 29 -42 20 -60 -11 -20 -1 -69 20 -100 8 -14 20 -34 26 -45 6
-11 20 -24 31 -29 10 -5 29 -24 42 -43 28 -43 55 -53 123 -46 44 4 60 1 88
-16 19 -11 49 -21 67 -21 21 0 44 -10 65 -29 18 -15 44 -32 58 -36 14 -4 37
-16 52 -26 14 -11 32 -19 40 -19 7 0 35 -16 62 -35 36 -25 60 -35 87 -35 21 0
41 -4 44 -10 3 -5 17 -10 31 -10 13 0 24 -4 24 -9 0 -5 27 -19 60 -31 45 -17
65 -31 81 -56 14 -23 28 -34 44 -34 13 0 27 -4 30 -10 9 -15 58 -12 100 6 29
12 44 13 62 5 24 -11 30 -40 12 -58 -17 -17 11 -53 43 -53 15 0 30 4 33 10 8
14 41 13 64 -2 16 -10 25 -7 55 15 38 30 52 23 48 -23 -1 -14 5 -34 13 -44 14
-18 16 -18 33 -3 10 9 24 17 31 17 6 0 23 7 36 16 22 14 26 14 47 0 29 -20 57
-20 79 0 17 16 21 14 59 -19 66 -60 100 -59 169 3 16 16 33 41 36 57 10 43 23
73 34 73 11 0 34 -22 56 -53 l15 -21 34 33 c30 29 38 32 63 24 15 -5 52 -8 81
-6 50 3 52 2 52 -22 0 -17 -5 -25 -18 -25 -10 0 -23 -5 -30 -12 -6 -6 -35 -11
-64 -11 -60 2 -106 -14 -114 -39 -10 -32 8 -69 45 -92 65 -40 65 -40 136 29
36 36 70 65 75 65 6 0 10 -20 10 -45 0 -45 0 -45 35 -45 l35 0 0 70 c0 51 -4
71 -15 77 -12 7 -8 16 21 46 l36 37 114 -1 c95 -2 118 1 133 15 23 21 108 47
175 53 38 4 51 2 58 -11 5 -9 15 -16 22 -16 7 0 23 -14 36 -32 22 -30 22 -32
5 -45 -25 -17 -60 -17 -75 2 -7 8 -24 15 -38 15 -23 0 -24 -3 -19 -40 6 -46
-9 -63 -54 -63 -21 0 -38 10 -61 36 l-33 37 -43 -15 c-24 -8 -55 -16 -70 -17
-15 -1 -38 -9 -52 -17 -14 -9 -34 -21 -44 -27 -34 -18 -40 -38 -21 -67 19 -30
52 -35 85 -15 18 11 23 10 43 -14 19 -22 63 -39 102 -38 6 0 104 3 219 5 115
3 217 10 227 15 10 6 42 10 71 10 41 0 60 5 77 21 12 12 39 26 59 31 20 6 53
22 72 37 60 46 130 66 145 42 7 -13 40 -12 90 2 59 16 65 23 65 83 l0 54 98 0
97 0 72 70 c40 38 78 70 86 70 7 0 18 5 24 11 8 8 17 8 32 -1 18 -9 21 -17 15
-48 -6 -37 -48 -92 -69 -92 -11 0 -35 -62 -35 -89 0 -6 15 -19 34 -28 32 -15
37 -15 69 1 19 9 44 16 56 16 12 0 32 15 48 38 15 20 40 49 54 63 14 15 40 52
59 82 24 40 44 60 72 73 32 14 47 32 80 91 46 84 69 97 124 67 43 -23 58 -15
99 54 17 28 39 53 50 56 35 10 105 6 105 -5 0 -14 71 -3 120 18 19 9 49 22 67
29 17 8 38 14 47 14 9 0 26 21 40 48 21 40 86 98 86 76 0 -5 5 -3 12 4 7 7 25
12 41 12 50 0 84 47 92 129 4 38 4 83 0 100 -6 27 -4 31 14 31 27 0 29 44 4
59 -15 8 -16 13 -5 28 16 24 33 61 42 98 15 52 41 119 53 134 7 8 13 24 14 35
6 56 16 96 23 96 19 0 80 65 80 86 0 26 45 84 65 84 7 0 15 5 17 11 2 5 23 13
47 16 38 5 46 11 72 52 15 25 49 64 74 86 25 22 45 46 45 54 0 7 32 47 70 87
49 52 70 82 70 99 0 14 7 28 15 31 48 19 171 275 160 333 -2 11 4 37 14 58 14
29 17 57 15 117 -3 83 -11 99 -55 122 -41 21 -77 17 -102 -9 -12 -13 -34 -31
-48 -41 -23 -14 -28 -15 -38 -2 -10 11 -6 27 19 76 17 33 37 63 46 67 11 4 94
153 94 170 0 1 -41 3 -91 3 -82 0 -93 -2 -110 -22 -10 -13 -18 -30 -19 -40 0
-9 -20 -41 -45 -71 -25 -31 -45 -59 -45 -63 0 -4 -11 -22 -25 -40 -14 -18 -25
-37 -25 -43 0 -6 -7 -11 -15 -11 -8 0 -15 -7 -15 -15 0 -22 -47 -30 -68 -12
-15 14 -20 13 -47 -9 -16 -13 -35 -24 -40 -24 -6 0 -21 -21 -33 -47 -13 -27
-32 -64 -43 -83 -11 -20 -17 -46 -14 -62 4 -23 -4 -34 -46 -70 -28 -23 -59
-61 -70 -85 -11 -24 -26 -43 -34 -43 -9 0 -21 -11 -27 -25 -14 -32 -37 -32
-84 0 -26 17 -50 25 -81 25 -34 0 -57 8 -90 30 -24 17 -48 30 -52 30 -5 0 -14
7 -21 15 -15 18 -42 19 -88 3 -29 -11 -36 -10 -45 3 -20 25 -44 29 -90 13 -29
-10 -48 -24 -56 -41 -6 -14 -9 -28 -7 -31 8 -8 -13 -42 -27 -42 -13 -1 -57
-34 -57 -44 0 -5 -60 -96 -70 -106 -3 -3 -16 -27 -30 -54 -14 -26 -35 -55 -47
-63 -13 -9 -24 -30 -28 -54 -4 -24 -18 -51 -36 -68 -16 -16 -29 -37 -29 -46 0
-8 -8 -18 -17 -21 -10 -3 -26 -10 -35 -15 -22 -11 -58 -12 -58 -1 0 5 -11 22
-25 38 -33 38 -38 59 -33 148 3 59 8 80 24 98 29 31 56 86 49 98 -4 6 3 25 14
44 12 18 21 45 21 60 0 14 5 26 10 26 12 0 14 43 3 54 -5 4 -13 24 -18 44 -10
34 -14 37 -49 40 -47 4 -69 -18 -118 -120 -29 -58 -38 -69 -85 -93 -39 -20
-55 -33 -59 -53 -8 -39 -25 -72 -56 -113 -15 -20 -28 -41 -28 -46 0 -34 -73
-123 -101 -123 -5 0 -9 -6 -9 -13 0 -7 -13 -23 -30 -37 -16 -14 -30 -29 -30
-35 0 -6 -17 -28 -38 -50 -54 -56 -92 -109 -92 -127 0 -18 20 -28 54 -28 13 0
30 -8 39 -18 16 -17 15 -20 -11 -44 -15 -14 -36 -28 -47 -30 -11 -2 -21 -12
-23 -24 -2 -11 -16 -34 -31 -51 -15 -17 -31 -38 -34 -47 -4 -9 -15 -16 -25
-16 -10 0 -23 -5 -30 -12 -9 -9 -19 -7 -45 7 -41 22 -124 16 -142 -9 -7 -9
-17 -16 -22 -16 -5 0 -18 -9 -28 -20 -10 -11 -20 -18 -23 -15 -3 2 -18 -14
-33 -35 -16 -22 -33 -40 -39 -40 -5 0 -21 -11 -36 -25 -15 -14 -35 -25 -44
-25 -23 0 -38 -19 -42 -55 -3 -31 -2 -30 -96 -55 -39 -10 -122 -78 -122 -101
0 -13 -35 -18 -160 -22 -111 -4 -205 -20 -225 -38 -5 -5 -53 -9 -107 -9 -74 0
-105 -4 -123 -16 -20 -13 -31 -14 -55 -5 -19 6 -38 7 -48 2 -70 -37 -90 -40
-304 -44 -181 -4 -219 -7 -241 -21 -19 -13 -44 -17 -99 -15 -141 3 -185 1
-207 -11 -17 -9 -26 -9 -37 1 -8 7 -59 16 -112 20 -129 10 -212 25 -248 44
-22 12 -47 14 -109 9 -72 -5 -82 -4 -102 15 -13 12 -63 43 -113 69 -123 64
-127 66 -148 85 -10 10 -25 17 -33 17 -8 0 -33 18 -56 39 -23 21 -58 51 -77
66 -23 17 -40 42 -48 66 -6 22 -17 39 -25 39 -7 0 -13 5 -13 10 0 6 -8 10 -18
10 -18 0 -86 65 -165 161 -26 31 -64 68 -85 83 -21 14 -46 40 -57 58 -10 18
-41 56 -67 83 -40 42 -48 56 -48 88 0 39 -45 136 -67 144 -7 3 -13 21 -13 40
0 19 -11 53 -24 76 -16 28 -26 66 -31 112 -3 39 -10 84 -15 100 -5 17 -16 54
-25 82 -12 43 -13 57 -3 73 10 15 10 22 0 32 -6 6 -12 22 -12 34 0 13 -4 25
-9 28 -19 12 -21 57 -5 92 21 44 25 166 7 211 -15 37 -15 102 1 122 6 7 11 64
12 130 2 125 7 156 35 213 11 21 19 47 19 59 0 24 14 72 38 131 9 23 13 54 10
82 -5 40 -2 48 23 72 16 15 29 32 29 38 0 5 7 17 15 26 9 10 20 46 26 81 6 35
17 74 25 86 8 12 14 44 14 71 0 32 5 54 15 62 9 8 15 30 15 59 0 26 4 51 9 56
5 6 12 35 14 65 3 30 8 73 11 94 3 22 1 45 -5 53 -19 22 -2 43 35 43 28 0 40
7 60 33 15 20 26 47 26 65 0 17 4 33 9 36 4 3 11 19 14 36 5 22 14 31 34 36
38 10 64 43 59 75 -6 34 19 70 47 68 59 -5 73 1 95 40 27 48 90 112 128 130
16 7 36 17 44 22 8 5 34 18 58 29 23 11 45 26 48 35 4 8 15 15 25 15 10 0 19
4 19 9 0 5 17 20 37 32 43 27 50 32 120 99 29 28 61 50 72 50 11 0 22 4 26 9
3 5 18 12 33 16 33 7 82 48 82 69 0 9 25 22 73 37 62 20 80 31 132 83 41 42
74 66 105 76 41 13 101 59 153 118 23 25 73 29 124 12 30 -11 60 -55 44 -65
-10 -5 -4 -235 6 -275 4 -14 7 -29 8 -35 7 -55 20 -104 34 -125 27 -41 41 -79
41 -115 0 -21 8 -43 23 -58 21 -24 52 -111 61 -172 9 -66 35 -138 58 -163 13
-15 35 -61 48 -102 13 -41 27 -81 33 -87 17 -23 76 -15 102 13 22 23 25 36 25
98 0 39 -7 96 -16 126 -9 30 -19 76 -23 102 -4 26 -15 56 -24 66 -9 10 -17 26
-17 35 0 9 -5 19 -11 22 -6 4 -8 13 -5 21 3 8 1 24 -3 37 -20 50 -24 63 -22
79 1 9 -3 19 -9 23 -6 3 -8 10 -5 15 3 5 -2 21 -11 36 -15 22 -15 27 -3 35 8
5 24 9 37 9 17 0 22 6 22 25 0 14 4 25 9 25 14 0 14 296 1 321 -8 13 -8 24 -2
32 15 18 23 71 26 182 2 55 6 108 10 117 8 18 130 81 179 93 15 4 31 13 35 20
4 7 31 24 60 39 28 14 58 35 64 46 7 11 22 20 33 20 26 0 114 51 144 84 19 20
34 26 68 26 31 0 43 4 43 15 0 26 39 37 111 33 65 -5 69 -4 96 24 37 40 75 58
117 58 32 0 36 -4 44 -32 7 -30 12 -33 49 -36 35 -3 44 1 63 25 12 15 45 39
73 53 49 24 52 27 52 64 1 31 -3 40 -22 47 -13 5 -26 16 -29 24 -9 23 25 55
58 55 25 0 28 -3 28 -33 0 -18 5 -38 12 -45 9 -9 9 -15 0 -24 -7 -7 -12 -26
-12 -42 0 -50 27 -56 241 -56 115 0 190 -4 194 -10 3 -5 30 -10 60 -10 30 0
57 5 60 10 3 6 15 10 26 10 28 0 24 -30 -8 -55 -21 -17 -25 -27 -19 -48 l6
-27 128 -1 c179 -1 246 -5 332 -18 41 -6 100 -13 130 -14 30 -2 64 -7 75 -11
11 -5 32 -13 48 -20 15 -6 27 -14 27 -18 0 -5 33 -8 73 -8 50 0 85 -6 108 -17
19 -10 54 -19 79 -20 88 -4 165 -15 174 -24 13 -12 70 -11 98 1 22 11 70 79
76 110 16 85 14 96 -18 123 -17 15 -42 27 -54 27 -12 0 -27 5 -34 12 -7 7 -57
13 -126 16 -105 4 -117 7 -137 28 -12 13 -34 24 -48 24 -14 0 -34 7 -44 14 -9
7 -28 11 -41 9 -13 -3 -45 6 -74 21 -33 17 -68 26 -97 26 -25 0 -54 5 -65 12
-15 10 -22 9 -38 -5 -24 -22 -45 -22 -66 2 -32 36 16 77 62 52 33 -18 198 -14
235 5 25 14 61 16 187 15 85 0 174 -4 198 -7 29 -4 48 -2 60 7 58 47 112 51
162 14 37 -27 92 -33 134 -14 18 8 29 9 38 2 18 -14 120 -43 152 -43 32 0 43
22 30 59 -12 33 -83 71 -149 78 -27 3 -57 12 -66 20 -12 10 -43 14 -110 14
-135 -1 -174 12 -206 70 -27 50 -52 62 -106 52 -16 -3 -39 0 -52 7 -15 8 -41
10 -76 6 -117 -15 -230 -17 -244 -6 -9 7 -15 8 -20 0 -3 -5 -15 -10 -25 -10
-16 0 -18 5 -14 28 4 22 0 29 -19 38 -33 15 -69 -11 -65 -46 3 -24 3 -24 -87
-21 -49 1 -97 7 -106 12 -10 5 -33 9 -51 9 -53 0 -63 18 -31 52 33 35 23 61
-26 66 -26 3 -31 7 -31 30 -1 32 -15 52 -53 72 -21 10 -33 11 -45 3 -14 -9
-21 -6 -39 16 l-21 26 -44 -16 c-35 -13 -49 -14 -64 -5 -16 9 -103 19 -249 28
-16 1 -38 -2 -47 -6 -13 -6 -18 -4 -18 6 0 25 -60 37 -111 21 -61 -19 -59 -19
-104 -28 -22 -4 -47 -11 -57 -16 -10 -6 -27 -3 -45 6 -40 21 -115 19 -144 -4
-31 -24 -79 -38 -159 -48 -55 -7 -66 -12 -79 -34 -13 -24 -13 -29 7 -54 39
-50 -7 -88 -53 -45 -19 18 -27 20 -66 11 -24 -6 -48 -11 -54 -11 -11 0 -35 46
-35 66 0 7 -15 24 -33 38 -38 29 -88 34 -107 11 -7 -8 -23 -15 -37 -15 -27 0
-64 -17 -75 -34 -17 -25 -6 -33 49 -35 32 -1 62 -6 69 -12 6 -5 13 -6 16 -4
12 12 58 -15 58 -34 0 -26 -24 -34 -95 -33 -33 0 -82 -6 -109 -14 -63 -18
-196 -19 -196 -1 1 39 14 57 55 70 65 23 85 44 85 93 0 59 25 112 78 167 25
26 50 47 54 47 13 0 78 48 107 79 17 18 39 31 53 31 14 0 37 13 53 30 16 17
39 30 52 30 14 0 40 18 70 50 26 27 56 50 66 50 11 0 36 12 56 28 47 35 77 52
94 52 8 0 41 29 74 65 52 56 65 65 95 65 18 0 39 5 45 11 14 14 55 -10 51 -30
-5 -22 -54 -54 -85 -53 -45 0 -63 -15 -63 -52 0 -62 25 -66 165 -29 39 10 75
35 75 50 0 7 3 13 8 13 4 0 29 21 55 45 43 40 53 45 95 45 72 0 188 72 240
148 21 31 42 70 46 85 5 20 17 33 41 43 20 8 41 27 51 47 15 28 36 57 115 161
15 19 30 67 30 91 -1 6 -4 36 -7 67 -8 67 -1 101 25 125 13 12 21 37 24 78 3
33 8 92 11 132 5 51 2 83 -9 115 -8 23 -15 49 -15 56 0 7 -18 30 -41 52 -29
28 -40 45 -37 62 1 14 -5 42 -14 64 -9 21 -19 51 -23 67 -5 27 -11 33 -81 92
-20 17 -55 47 -77 68 -36 32 -47 37 -90 37 -41 0 -59 6 -101 37 -28 20 -52 40
-54 45 -2 4 -17 8 -33 8 -16 0 -53 12 -82 27 -74 38 -281 56 -502 43 -27 -2
-61 0 -75 3 -14 3 -43 1 -65 -5z m130 -248 c3 -4 -2 -13 -10 -20 -8 -7 -15
-26 -15 -43 l0 -30 63 7 c46 4 67 11 79 27 10 12 15 25 12 30 -2 5 0 18 6 29
9 18 21 20 94 20 60 0 87 -4 95 -14 7 -8 38 -16 74 -19 83 -6 92 -9 124 -39
27 -24 108 -52 125 -42 17 11 67 -28 85 -65 10 -22 25 -41 33 -44 8 -2 36 -47
63 -100 44 -90 47 -100 47 -177 0 -62 -3 -80 -12 -76 -7 3 -20 9 -29 12 -24 8
-39 47 -46 118 -3 35 -12 64 -19 69 -8 4 -14 13 -14 19 0 6 -21 35 -46 64 -56
67 -90 72 -127 22 -14 -18 -27 -44 -30 -58 -3 -14 -13 -45 -22 -70 -9 -25 -17
-56 -17 -70 0 -13 -9 -36 -19 -50 -22 -29 -20 -80 3 -108 42 -51 41 -111 -3
-159 -16 -16 -24 -39 -27 -78 -4 -50 -8 -58 -48 -90 -29 -24 -62 -40 -99 -48
-49 -10 -62 -18 -100 -62 -24 -28 -45 -62 -47 -74 -1 -13 -10 -27 -18 -31 -8
-4 -45 -22 -82 -40 -38 -17 -68 -38 -68 -46 0 -8 -11 -19 -25 -24 -14 -5 -25
-17 -25 -25 0 -9 -8 -19 -17 -22 -10 -4 -31 -17 -47 -31 -17 -13 -39 -27 -50
-32 -37 -14 -186 -121 -196 -141 -6 -10 -16 -19 -23 -19 -11 0 -157 -59 -199
-81 -10 -5 -24 -9 -32 -9 -7 0 -26 -18 -41 -40 -23 -33 -34 -40 -54 -38 -23 3
-26 7 -24 38 0 19 4 56 8 82 6 35 3 56 -9 82 -9 19 -16 41 -16 50 0 8 -7 32
-16 53 -30 67 -33 77 -39 126 -4 28 -12 50 -21 54 -8 3 -14 13 -14 22 0 9 -5
22 -11 28 -6 6 -15 62 -20 124 -7 84 -14 118 -27 133 -26 31 -57 77 -76 114
-10 19 -24 32 -35 32 -12 0 -29 17 -45 45 -15 25 -33 45 -41 45 -16 0 -35 30
-35 54 0 11 9 16 28 16 15 0 43 11 62 25 18 13 37 22 41 19 5 -3 15 12 24 32
18 43 41 63 73 64 12 0 22 6 22 14 0 7 9 25 20 39 18 23 29 26 93 29 l72 3 22
41 c22 39 26 42 77 47 29 3 78 17 108 31 30 14 60 26 66 26 7 0 20 8 30 18 19
19 83 52 101 52 6 0 32 11 58 24 27 14 69 35 95 48 34 16 53 34 69 64 16 32
25 40 40 37 11 -3 21 -9 24 -13z m742 -2247 c24 -16 27 -16 55 0 30 17 31 17
59 -13 34 -35 93 -42 114 -13 11 14 26 17 86 14 41 -1 79 -6 84 -11 6 -5 21
-7 33 -3 17 4 22 1 22 -15 0 -12 4 -23 10 -27 12 -7 2 -35 -14 -35 -6 0 -22
-16 -35 -35 -35 -52 -102 -79 -123 -51 -13 18 -130 19 -178 1 -25 -9 -61 -20
-81 -24 -19 -4 -41 -11 -48 -16 -16 -9 -89 12 -113 33 -10 8 -18 21 -18 29 0
7 8 13 18 13 22 1 62 34 62 53 0 8 -9 25 -19 38 -16 20 -33 26 -112 34 -52 6
-94 15 -96 21 -4 12 52 9 90 -5 19 -7 81 3 122 20 32 12 54 10 82 -8z m-604
-52 c9 -22 26 -46 39 -55 17 -12 20 -18 10 -28 -7 -7 -12 -26 -12 -43 0 -24 6
-35 25 -43 66 -30 134 7 122 67 -6 27 -4 29 31 36 73 13 106 10 140 -15 l32
-24 -24 -25 c-13 -14 -27 -36 -30 -48 -12 -37 -56 -61 -111 -61 -28 0 -58 5
-67 10 -11 5 -30 3 -53 -6 -20 -9 -53 -16 -73 -17 -21 -1 -47 -11 -60 -23 -20
-18 -42 -22 -135 -28 -133 -7 -176 -15 -199 -36 -24 -20 -23 -74 1 -96 18 -17
18 -18 -2 -56 -15 -27 -27 -37 -41 -34 -25 5 -24 4 -29 46 -7 67 -75 143 -116
133 -28 -7 -41 -21 -41 -45 0 -25 -22 -40 -58 -40 -78 0 -119 -71 -68 -119 24
-23 25 -23 55 -5 17 10 31 22 31 26 0 4 5 8 10 8 6 0 10 -16 10 -35 0 -41 -23
-55 -94 -55 -23 0 -47 -5 -53 -11 -9 -9 -18 -4 -38 20 -15 17 -31 31 -37 31
-5 0 -26 12 -45 28 -20 15 -38 26 -40 25 -16 -13 -24 1 -19 30 4 17 11 71 16
120 11 94 33 154 65 171 11 6 23 15 26 19 4 5 41 7 83 6 71 -3 78 -2 107 24
17 15 36 27 43 27 6 0 22 9 36 20 27 21 70 26 86 10 6 -6 22 -6 47 1 26 7 43
7 57 -1 13 -7 26 -7 38 -1 10 5 73 9 141 10 149 0 166 8 155 78 -8 57 17 60
39 4z m-1425 -464 c8 -9 8 -20 -1 -38 -20 -40 -19 -74 2 -113 26 -46 27 -96 1
-128 -10 -14 -22 -44 -26 -67 -4 -22 -10 -41 -13 -41 -4 0 -14 -16 -21 -35
-12 -32 -18 -36 -45 -33 -30 3 -30 4 -30 60 -1 45 -5 61 -20 72 -19 14 -19 15
13 48 35 37 39 52 19 73 -12 11 -53 21 -67 15 -3 -1 -32 -4 -65 -6 -39 -3 -70
-11 -87 -24 -47 -35 -79 -22 -38 15 11 10 20 28 20 41 0 13 9 28 20 34 16 9
27 7 51 -10 29 -21 57 -22 85 -3 6 5 15 26 20 48 7 30 17 44 42 56 17 9 37 21
44 27 7 6 27 12 43 15 17 2 33 5 36 6 4 0 11 -5 17 -12z m-288 -307 c68 -1 89
-51 39 -96 -10 -9 -19 -29 -19 -44 0 -32 -18 -49 -67 -66 -35 -12 -35 -12 -29
14 13 53 12 57 -18 60 -16 2 -41 -2 -55 -10 -34 -17 -103 -86 -120 -120 -8
-16 -20 -28 -26 -28 -7 0 -24 -9 -39 -21 -22 -17 -26 -28 -26 -70 0 -36 -4
-49 -14 -49 -8 0 -21 -9 -29 -21 -10 -14 -23 -20 -42 -17 -25 3 -33 11 -55 58
-4 8 -20 22 -36 30 -37 21 -41 44 -13 67 12 10 32 28 43 39 30 31 93 64 121
64 14 0 25 4 25 9 0 15 126 81 153 81 18 0 43 20 88 69 38 40 68 65 74 60 5
-5 25 -9 45 -9z m-821 -654 c13 -14 22 -29 20 -33 -8 -18 -85 -81 -109 -88
-14 -4 -33 -16 -43 -26 -10 -11 -24 -19 -32 -19 -7 0 -20 -3 -29 -6 -24 -9
-20 23 4 36 11 6 20 15 20 20 0 31 104 137 136 139 6 1 21 -10 33 -23z m-31
-280 c2 -9 -8 -26 -22 -37 -14 -11 -26 -29 -26 -39 0 -30 -55 -78 -97 -84 -96
-15 -105 14 -26 89 87 84 163 116 171 71z m3710 -3374 c-3 -49 -10 -98 -17
-109 -6 -12 -11 -55 -11 -96 0 -69 -2 -77 -35 -120 -19 -25 -35 -49 -35 -54
-1 -20 -51 -62 -110 -91 -35 -18 -64 -32 -65 -32 -2 0 -10 11 -18 24 l-16 24
38 -5 c34 -5 43 -1 78 30 46 42 67 96 52 136 -15 37 -2 136 25 190 13 25 27
65 31 88 4 24 11 45 16 49 5 3 9 14 9 24 0 19 13 28 44 29 17 1 18 -5 14 -87z
m-415 -526 c33 -42 34 -60 5 -102 -17 -24 -33 -35 -61 -40 -48 -8 -62 5 -61
55 2 65 12 87 46 104 43 21 39 22 71 -17z"/>
<path d="M8026 7080 c-16 -5 -33 -7 -38 -4 -11 7 -48 -24 -48 -40 0 -7 32 -42
72 -80 72 -68 72 -68 121 -63 61 5 79 23 85 85 4 47 3 50 -32 77 -40 31 -109
41 -160 25z"/>
<path d="M8505 6815 c-16 -14 -34 -25 -40 -25 -5 0 -27 -16 -48 -36 -29 -27
-37 -43 -35 -63 2 -14 9 -26 17 -26 7 0 29 -14 47 -32 21 -19 47 -33 67 -35
29 -3 32 -6 29 -35 -2 -17 2 -34 7 -38 6 -3 11 -15 11 -26 0 -13 7 -19 23 -19
14 -1 33 -16 52 -40 33 -43 55 -55 84 -45 36 11 35 120 -2 188 -17 33 -130
137 -147 137 -8 0 -9 6 -5 18 15 35 17 60 6 81 -15 27 -29 26 -66 -4z"/>
<path d="M8705 6355 c-92 -27 -93 -28 -99 -56 -3 -16 -11 -29 -18 -29 -22 0
-38 -35 -29 -66 5 -21 16 -30 42 -37 19 -5 38 -13 44 -18 14 -13 149 -11 163
3 16 16 15 54 -2 86 -8 15 -18 48 -21 75 -6 45 -7 47 -38 46 -18 0 -36 -2 -42
-4z"/>
<path d="M17917 6073 c-27 -31 -162 -303 -253 -510 -27 -63 -50 -85 -38 -37 4
14 7 114 8 221 1 189 0 195 -21 213 -23 18 -138 40 -228 43 l-50 2 -2 -175
c-1 -96 -4 -347 -7 -556 -2 -210 -7 -399 -10 -421 -9 -51 16 -84 81 -107 53
-19 67 -25 131 -51 40 -17 43 -17 61 -1 11 10 24 30 29 44 10 31 17 162 17
310 0 56 2 102 5 102 3 0 16 -20 28 -45 35 -72 140 -235 187 -290 23 -27 61
-61 84 -74 l43 -23 50 52 c27 28 56 67 64 86 14 34 14 36 -60 177 -40 78 -92
177 -116 220 l-42 78 23 62 c12 34 25 67 29 72 4 6 11 21 15 35 4 14 36 85 71
159 35 73 64 135 64 137 0 2 13 32 30 66 28 57 29 63 15 85 -9 13 -20 23 -25
23 -5 0 -37 27 -71 60 -64 63 -86 71 -112 43z"/>
<path d="M19634 6084 c-52 -12 -55 -27 -55 -236 0 -106 3 -248 7 -315 4 -76 3
-123 -3 -123 -5 0 -22 42 -38 93 -15 50 -37 119 -47 152 -11 33 -21 68 -23 78
-2 9 -11 45 -21 80 -9 34 -19 72 -21 84 -8 33 -32 50 -103 73 -133 44 -195 43
-224 -3 -17 -26 -25 -225 -32 -799 -6 -435 -5 -448 57 -472 95 -38 178 -27
215 29 15 24 17 50 15 218 -1 106 -6 220 -10 254 -12 100 3 98 51 -7 59 -131
197 -402 212 -418 17 -17 160 -42 203 -35 19 3 38 13 42 22 5 9 8 302 7 651
l-1 635 -40 20 c-39 19 -143 29 -191 19z"/>
<path d="M13860 6073 c-8 -3 -18 -11 -23 -17 -4 -6 -6 -134 -5 -285 2 -316 6
-301 -94 -301 -32 0 -58 1 -59 3 0 1 -3 110 -6 242 -4 203 -7 242 -21 253 -9
6 -22 12 -30 12 -8 0 -28 6 -45 14 -52 23 -76 25 -137 14 -51 -8 -59 -13 -65
-36 -3 -15 -8 -266 -11 -559 -4 -576 -1 -628 48 -680 48 -52 197 -90 246 -64
22 12 22 16 22 256 0 282 -2 275 86 275 66 0 62 13 67 -215 6 -230 17 -254
132 -285 58 -16 75 -16 148 5 31 8 28 -19 31 285 2 168 5 874 4 910 0 8 3 29
7 46 9 39 -19 72 -89 109 -40 20 -62 25 -120 24 -39 0 -78 -3 -86 -6z"/>
<path d="M16534 6022 c-58 -28 -126 -135 -189 -297 -73 -190 -80 -232 -80
-465 0 -146 3 -173 23 -235 64 -193 190 -318 329 -330 27 -2 61 -8 76 -14 108
-41 239 24 326 164 40 63 85 181 113 292 32 132 30 339 -5 485 -43 176 -117
292 -219 344 -131 66 -298 91 -374 56z m246 -326 c43 -102 60 -274 40 -416
-20 -145 -78 -295 -125 -326 -25 -16 -27 -16 -51 7 -41 39 -56 114 -56 278 0
124 4 161 26 249 35 137 66 220 94 254 21 25 49 7 72 -46z"/>
<path d="M7313 6015 c-19 -8 -35 -23 -38 -37 -6 -24 -2 -185 11 -455 5 -103 4
-153 -3 -153 -16 0 -58 122 -124 354 -21 76 -44 145 -50 152 -5 7 -49 27 -97
44 -101 37 -181 38 -207 4 -21 -29 -24 -65 -31 -514 -11 -634 -8 -725 24 -753
16 -15 91 -40 122 -42 29 -2 75 18 103 44 l29 26 -4 268 c-1 147 -1 267 2 267
3 0 16 -24 29 -52 13 -29 60 -125 104 -213 44 -88 88 -176 98 -196 22 -44 37
-57 74 -63 17 -3 54 -10 84 -16 67 -12 113 -5 129 21 18 29 27 1258 10 1281
-33 42 -197 63 -265 33z"/>
<path d="M14595 6016 c-17 -7 -45 -30 -64 -51 -45 -52 -134 -238 -172 -360
-63 -207 -63 -490 1 -644 67 -163 196 -279 311 -280 20 -1 52 -7 70 -15 87
-36 209 14 287 118 143 193 199 480 151 784 -20 128 -71 241 -146 323 -43 46
-67 63 -121 83 -154 57 -253 70 -317 42z m212 -298 c27 -30 61 -162 68 -266
15 -214 -77 -522 -156 -522 -26 0 -56 44 -68 100 -17 81 -15 313 4 405 32 153
91 305 118 305 8 0 23 -10 34 -22z"/>
<path d="M10444 5984 c-106 -64 -177 -150 -221 -270 -26 -72 -32 -192 -12
-241 47 -116 127 -217 242 -308 21 -16 56 -48 78 -70 64 -66 62 -138 -5 -150
-60 -12 -128 31 -180 113 -30 47 -70 62 -113 39 -88 -45 -93 -50 -93 -93 0
-46 30 -122 68 -172 14 -18 52 -54 86 -80 102 -79 164 -102 275 -102 154 0
266 91 316 256 29 96 12 203 -47 290 -17 25 -72 79 -123 119 -102 82 -164 147
-190 202 -33 68 -1 183 52 191 18 3 21 -4 26 -73 6 -88 31 -145 71 -164 15 -7
57 -18 92 -24 58 -10 66 -9 91 9 42 31 56 84 49 183 -6 99 -27 161 -73 218
-27 34 -60 55 -157 103 -67 33 -134 60 -147 60 -14 0 -52 -16 -85 -36z"/>
<path d="M12172 6011 c-53 -14 -97 -65 -156 -182 -53 -104 -119 -292 -131
-374 -14 -98 -17 -278 -5 -352 23 -147 88 -276 177 -353 50 -43 133 -80 178
-80 20 0 45 -5 56 -10 10 -6 49 -11 87 -12 64 -2 69 0 127 42 66 48 110 101
151 182 66 131 103 271 109 417 4 79 -6 228 -18 276 -3 11 -10 43 -17 70 -27
122 -117 253 -211 308 -87 51 -272 87 -347 68z m213 -326 c12 -22 25 -54 28
-70 3 -17 10 -50 16 -75 17 -77 7 -294 -17 -386 -43 -162 -98 -248 -145 -227
-24 11 -38 35 -58 102 -18 58 -17 298 1 371 26 110 63 226 87 278 30 65 54 67
88 7z"/>
<path d="M15580 6013 c-60 -4 -149 -23 -182 -39 -24 -12 -27 -21 -35 -91 -4
-43 -8 -303 -8 -578 0 -570 -6 -531 88 -585 99 -57 131 -65 201 -51 155 31
392 149 448 223 51 67 60 96 56 172 -4 98 -35 156 -116 220 -57 46 -60 50 -43
63 120 84 203 232 185 330 -25 141 -189 300 -342 332 -49 10 -144 12 -252 4z
m260 -268 c16 -9 32 -26 36 -39 14 -57 -69 -172 -154 -215 -66 -33 -75 -21
-67 93 8 128 13 154 33 165 26 16 119 13 152 -4z m-58 -524 c97 -61 100 -107
11 -171 -60 -43 -122 -65 -153 -55 -23 7 -23 10 -9 129 8 70 16 95 31 109 29
25 68 21 120 -12z"/>
<path d="M18270 5999 c-29 -53 -55 -1038 -31 -1144 14 -58 46 -99 116 -145 46
-30 54 -32 110 -27 33 4 87 14 120 23 33 8 94 22 135 30 207 38 200 36 207 62
10 41 -16 99 -75 167 l-57 65 -80 -5 c-44 -3 -99 -8 -123 -11 l-43 -5 3 88 3
88 85 16 c47 9 116 21 153 27 37 5 75 16 82 22 21 17 19 116 -3 162 -32 68
-57 79 -195 86 l-122 7 0 92 c0 51 5 97 10 102 11 10 120 26 245 36 121 9 139
36 105 148 -37 122 -61 130 -393 132 -217 1 -244 -1 -252 -16z"/>
<path d="M9464 6001 c-68 -17 -108 -65 -174 -203 -62 -132 -107 -270 -115
-350 -3 -35 -10 -106 -16 -158 -13 -112 5 -239 49 -350 63 -162 173 -263 307
-281 28 -4 80 -13 116 -20 61 -12 68 -11 111 10 95 46 171 132 230 261 33 69
37 84 69 200 31 114 28 351 -6 479 -47 175 -126 290 -235 343 -113 54 -268 86
-336 69z m203 -326 c51 -90 72 -320 43 -474 -16 -91 -66 -222 -98 -261 -34
-40 -68 -37 -94 8 -16 26 -51 199 -43 212 1 3 6 55 9 115 4 61 12 128 17 150
23 92 30 113 54 180 46 127 71 142 112 70z"/>
<path d="M11285 6004 c-37 -8 -103 -80 -148 -161 -41 -74 -113 -280 -140 -403
-32 -141 -39 -239 -23 -330 22 -127 24 -134 58 -207 40 -85 131 -177 213 -217
49 -24 75 -29 160 -34 93 -4 107 -3 151 19 99 49 195 172 240 311 32 95 23
130 -43 178 -77 56 -91 62 -131 55 -35 -6 -38 -10 -66 -81 -16 -41 -44 -95
-63 -119 -34 -45 -96 -85 -131 -85 -24 0 -56 36 -71 79 -16 49 -14 221 5 299
56 243 110 402 134 402 19 0 33 -47 38 -129 7 -118 28 -158 95 -180 28 -10 50
-10 88 -2 92 20 89 14 89 163 0 241 -47 351 -180 419 -37 19 -63 23 -150 25
-58 1 -114 0 -125 -2z"/>
<path d="M4867 5971 l-25 -30 -6 -308 c-4 -169 -9 -375 -12 -458 -7 -192 -7
-169 -2 -320 l4 -130 44 -17 c25 -9 98 -31 163 -49 133 -36 130 -37 225 32
155 113 312 337 356 506 23 88 19 254 -8 368 -23 97 -97 227 -163 285 -104 92
-278 150 -449 150 -101 0 -103 0 -127 -29z m375 -363 c41 -46 52 -91 52 -208
-1 -116 -21 -187 -91 -322 -40 -77 -60 -86 -65 -30 -4 50 11 573 17 591 8 21
56 4 87 -31z"/>
<path d="M6015 5990 c-57 -23 -158 -189 -215 -354 -31 -91 -70 -305 -70 -388
0 -147 48 -333 109 -421 33 -49 101 -113 151 -144 35 -21 132 -41 242 -50 47
-4 65 -1 95 18 120 71 204 208 265 432 20 70 23 106 22 247 0 195 -20 292 -83
417 -62 122 -131 180 -270 223 -96 30 -201 39 -246 20z m243 -364 c41 -119 51
-323 22 -436 -5 -19 -14 -57 -21 -85 -18 -72 -67 -173 -91 -186 -40 -21 -66
-3 -85 59 -26 82 -25 354 1 467 23 99 72 234 93 258 26 28 54 1 81 -77z"/>
<path d="M8470 5980 c-112 -11 -178 -35 -186 -66 -7 -29 -9 -71 -19 -639 -10
-536 -10 -537 106 -596 95 -47 135 -54 220 -33 76 18 253 92 301 125 14 11 30
19 36 19 18 0 94 91 114 138 17 37 20 59 15 113 -9 106 -47 167 -149 241 l-23
17 61 58 c76 72 97 103 122 178 19 54 19 66 8 120 -18 85 -38 118 -121 201
-103 103 -155 125 -300 129 -60 2 -144 0 -185 -5z m301 -276 c21 -19 24 -58 8
-101 -14 -37 -94 -118 -141 -143 -56 -29 -69 -19 -64 49 2 31 5 88 5 128 l1
72 33 10 c45 14 135 6 158 -15z m-92 -500 c43 -21 87 -64 93 -91 9 -35 -25
-76 -88 -110 -67 -35 -113 -47 -133 -34 -20 13 -1 204 24 231 22 24 61 26 104
4z"/>
<path d="M19255 4620 c-4 -6 -13 -9 -21 -6 -8 3 -27 1 -42 -5 -15 -6 -42 -13
-59 -15 -50 -7 -83 -22 -83 -38 0 -19 17 -29 25 -15 4 6 17 8 30 5 29 -7 39 4
17 20 -14 11 -15 13 -1 14 16 0 39 -18 39 -31 0 -4 -9 -11 -20 -14 -30 -9 -13
-26 18 -19 15 4 32 10 37 14 16 12 65 21 65 13 0 -22 166 1 174 24 5 13 -15
39 -34 43 -3 1 -14 4 -25 6 -11 3 -26 5 -32 4 -7 0 -21 -1 -30 -2 -10 0 -25 2
-34 6 -10 4 -20 2 -24 -4z"/>
<path d="M18625 4560 c-3 -5 -23 -10 -43 -10 -34 0 -35 -1 -16 -15 18 -14 17
-14 -13 -15 -23 0 -33 5 -33 15 0 8 -4 15 -10 15 -5 0 -10 -6 -10 -14 0 -7
-14 -16 -32 -20 -35 -7 -50 0 -28 14 8 5 11 12 7 16 -10 11 -62 -31 -61 -49 1
-9 -5 -13 -17 -10 -10 3 -16 10 -13 17 5 14 -36 36 -68 36 -12 0 -29 -7 -38
-15 -9 -8 -42 -16 -78 -18 -34 -2 -68 -9 -76 -16 -12 -10 -24 -9 -61 4 -45 15
-48 14 -76 -6 l-29 -20 -26 20 c-28 22 -53 19 -33 -5 9 -11 8 -14 -4 -14 -8 0
-18 7 -21 16 -5 14 -9 13 -36 -3 -38 -22 -38 -32 0 -39 17 -4 30 -11 30 -16 0
-6 -11 -7 -25 -4 -17 4 -31 1 -41 -9 -14 -13 -14 -15 2 -15 10 0 15 -3 12 -6
-8 -7 -86 14 -93 25 -3 5 5 7 17 3 14 -3 19 -2 14 6 -4 7 -13 12 -19 12 -7 0
-21 14 -31 31 -13 21 -23 28 -34 24 -10 -4 -46 -8 -81 -11 -80 -5 -104 -12
-97 -29 3 -8 -2 -19 -10 -25 -12 -10 -14 -7 -14 17 0 39 -8 45 -34 28 -27 -19
-42 -19 -26 0 10 13 9 15 -11 15 -82 1 -95 -2 -109 -21 -12 -15 -18 -17 -27
-8 -8 8 -16 9 -25 2 -7 -5 -39 -9 -71 -9 -32 1 -61 -2 -63 -6 -7 -11 -24 -10
-24 1 0 5 13 12 30 16 30 6 47 21 37 32 -10 9 -87 -30 -87 -44 0 -7 -7 -13
-15 -13 -8 0 -15 -4 -15 -10 0 -5 -4 -10 -10 -10 -5 0 -10 6 -10 14 0 13 -28
26 -57 26 -7 0 -13 -11 -13 -25 0 -14 4 -25 9 -25 5 0 12 -11 15 -25 5 -20 13
-25 37 -25 24 0 30 4 25 15 -4 10 1 15 15 15 14 0 19 -5 16 -14 -9 -22 32 -48
77 -48 84 -1 154 19 126 37 -5 3 -10 11 -10 17 0 6 12 3 26 -7 15 -9 35 -14
48 -11 12 3 31 -1 43 -9 17 -12 26 -12 64 0 24 7 38 14 32 14 -7 1 -13 6 -13
12 0 6 9 8 20 4 13 -4 20 -2 20 7 0 21 37 41 47 25 14 -22 61 -40 87 -33 23 6
26 3 26 -18 0 -26 27 -43 44 -26 8 8 7 13 -3 19 -11 7 -12 11 0 23 16 17 62 1
54 -20 -7 -20 26 -28 37 -8 6 11 16 15 28 11 10 -3 21 -1 25 4 4 7 12 7 25 -1
14 -9 22 -9 34 1 13 11 19 11 31 1 9 -7 18 -10 22 -6 4 3 17 -4 29 -15 18 -17
27 -19 37 -11 9 8 17 8 24 1 7 -7 17 1 34 28 28 47 58 75 72 66 5 -3 3 -10 -7
-15 -27 -15 -8 -26 36 -21 32 5 44 2 54 -12 10 -13 28 -19 63 -19 27 -1 53 -4
56 -8 4 -4 17 -3 29 2 14 5 28 3 41 -6 21 -16 65 -19 65 -5 0 5 -6 11 -12 14
-7 2 29 3 81 2 75 -1 95 -5 102 -18 8 -13 20 -15 62 -10 28 3 55 11 59 17 4 6
46 12 100 13 150 3 172 2 183 -6 18 -14 69 -20 88 -9 12 6 23 6 32 -2 10 -9
19 -8 36 0 11 7 34 10 50 8 16 -3 29 -1 29 3 0 3 39 6 86 5 47 -1 88 2 90 6 3
5 16 8 30 8 14 0 33 7 41 16 14 13 14 17 2 25 -11 7 -9 9 7 9 12 0 27 7 34 15
9 11 16 12 25 5 12 -10 56 -5 78 7 5 3 -1 12 -12 20 -12 8 -25 11 -31 8 -5 -3
-19 -1 -30 5 -11 6 -35 13 -53 16 -88 14 -109 13 -152 -7 -26 -12 -52 -18 -64
-14 -16 5 -21 2 -21 -10 0 -27 -25 -11 -28 18 -2 14 -11 29 -21 32 -24 7 -53
-4 -48 -19 3 -7 -12 -11 -40 -12 -25 -1 -48 -5 -51 -10 -10 -14 -59 -34 -66
-27 -12 12 -6 23 14 23 11 0 20 4 20 9 0 4 -23 9 -52 10 -28 0 -53 3 -56 5 -2
3 -15 1 -28 -4 -20 -8 -24 -6 -24 10 0 10 5 22 11 25 17 11 -23 34 -58 35 -26
0 -33 -4 -33 -19 0 -11 -5 -23 -10 -26 -7 -4 -9 2 -4 19 6 26 6 26 -59 26 -43
0 -67 -4 -71 -12 -5 -10 -7 -10 -12 0 -7 14 -40 16 -49 2z"/>
<path d="M15696 4521 c-19 -20 -56 -34 -56 -21 0 5 6 10 13 13 31 11 -3 14
-50 4 -56 -12 -66 -22 -33 -32 14 -4 20 -15 20 -35 0 -32 -14 -40 -72 -40 -36
0 -39 2 -27 16 11 14 8 15 -33 10 -35 -4 -47 -2 -52 9 -6 17 -52 20 -61 5 -3
-5 -1 -10 4 -10 20 0 11 -15 -19 -32 -17 -10 -32 -13 -35 -7 -4 5 -25 9 -48 9
-23 0 -48 4 -56 9 -15 9 -71 -3 -80 -17 -9 -13 -61 -24 -61 -13 0 13 -18 17
-123 31 -75 10 -87 15 -82 29 3 9 -1 25 -8 35 -11 15 -17 16 -34 7 -14 -7 -19
-17 -16 -30 4 -16 -1 -18 -36 -16 -23 1 -43 4 -44 6 -1 2 -7 13 -13 24 -6 11
-20 22 -30 24 -18 3 -18 3 -1 -17 13 -14 15 -22 7 -27 -7 -4 -17 -2 -23 4 -6
6 -22 11 -35 11 -15 0 -26 7 -29 20 -9 36 -73 16 -73 -23 0 -20 -9 -26 -31
-20 -21 6 -26 29 -6 36 6 3 1 6 -12 6 -21 1 -22 3 -10 18 13 15 11 16 -11 10
-14 -4 -53 -12 -87 -19 -40 -7 -63 -16 -63 -25 0 -15 46 -18 55 -3 9 15 24 12
21 -4 -4 -26 -31 -42 -73 -41 -27 0 -44 -4 -48 -13 -7 -19 4 -34 21 -28 8 3
21 3 29 0 27 -11 5 -24 -41 -24 -24 0 -44 -4 -44 -9 0 -4 12 -6 28 -3 25 5 26
4 13 -12 -8 -10 -23 -15 -33 -13 -10 3 -21 1 -24 -4 -3 -5 -19 -9 -35 -9 -38
0 -30 -15 19 -36 59 -25 126 -21 162 10 18 14 30 26 28 27 -2 0 -14 2 -28 5
-63 10 -74 15 -59 24 7 5 22 7 31 4 10 -3 23 -2 30 3 7 4 32 8 56 8 37 1 42
-2 42 -21 0 -12 -8 -25 -17 -28 -11 -5 -13 -10 -6 -17 8 -8 19 -6 38 7 19 12
23 19 13 25 -18 12 -3 22 21 14 17 -5 19 -10 11 -25 -6 -10 -10 -21 -10 -23 0
-17 136 -31 155 -16 6 4 30 7 54 6 47 -3 68 8 73 37 2 16 12 20 46 21 28 1 42
-3 42 -12 0 -16 -5 -17 69 8 l63 20 15 -20 c8 -12 23 -21 35 -21 17 0 18 -2 8
-15 -16 -19 -34 -19 -50 0 -14 17 -32 11 -24 -10 4 -10 26 -13 85 -13 68 0 80
2 77 16 -2 9 -18 20 -36 24 -33 9 -41 21 -21 34 6 3 24 -3 39 -15 17 -12 31
-17 35 -11 3 6 1 10 -4 10 -6 0 -11 5 -11 11 0 7 -8 18 -17 25 -17 12 -16 13
4 14 12 0 26 -7 31 -17 5 -9 18 -17 28 -18 52 -4 90 -35 44 -35 -11 0 -20 -5
-20 -11 0 -7 11 -9 29 -6 20 4 33 1 42 -9 24 -29 46 -34 82 -19 18 7 43 12 54
9 26 -7 40 12 15 20 -12 4 -18 15 -17 29 1 18 8 22 43 25 33 2 42 0 42 -12 0
-9 3 -16 8 -17 4 0 20 -2 36 -4 33 -4 54 4 37 14 -6 4 6 8 27 8 20 1 53 3 72
5 29 3 35 0 33 -16 -2 -33 23 -49 67 -42 26 4 40 2 43 -7 3 -9 8 -9 21 2 12
10 20 11 24 4 4 -6 26 -14 48 -17 44 -8 60 6 47 41 -4 11 -3 14 5 9 7 -4 12
-13 12 -21 0 -25 20 -27 56 -6 19 12 43 21 53 21 10 0 24 7 31 15 8 10 17 12
24 6 6 -5 49 -11 94 -13 74 -4 85 -3 95 14 16 24 27 23 27 -3 0 -17 4 -20 28
-15 21 5 140 7 322 6 35 0 170 19 181 25 6 4 15 1 20 -6 6 -11 11 -11 21 -1 9
9 9 12 -5 12 -11 0 -17 8 -17 25 0 14 -4 25 -10 25 -5 0 -10 16 -10 35 0 36
-25 60 -53 49 -13 -5 -67 -11 -117 -13 -18 -1 -21 -4 -13 -12 9 -9 8 -15 -2
-25 -16 -16 -49 -19 -40 -4 4 6 -7 10 -25 10 -18 0 -29 -4 -25 -10 9 -14 -29
-12 -43 2 -8 8 -12 9 -12 1 0 -6 5 -13 12 -15 13 -5 2 -28 -13 -28 -6 0 -7 5
-4 10 9 14 -18 22 -78 24 -33 1 -51 5 -50 13 1 6 -4 17 -12 23 -18 15 -45 -2
-45 -27 0 -9 -6 -13 -15 -10 -8 4 -17 2 -21 -4 -7 -11 -56 -4 -91 13 -18 9
-20 14 -12 25 9 10 5 13 -19 13 -16 0 -35 7 -43 16 -11 14 -14 14 -23 1 -6 -8
-27 -16 -46 -19 -31 -5 -40 0 -73 34 -27 28 -44 38 -55 33 -9 -4 -29 -8 -44
-9 -38 -3 -43 -11 -20 -36 19 -21 21 -21 30 -3 6 10 14 14 18 10 14 -13 -49
-57 -71 -50 -11 3 -21 10 -23 14 -5 12 -42 11 -42 0 0 -5 6 -11 13 -14 23 -9
-7 -24 -33 -16 -14 4 -19 7 -12 8 7 1 11 5 7 11 -3 5 -12 7 -19 4 -8 -3 -26 6
-40 21 -31 31 -32 35 -7 35 13 0 21 -8 23 -22 l3 -23 14 24 c14 26 8 36 -30
45 -19 4 -31 0 -43 -13z"/>
<path d="M14125 4520 c-22 -4 -44 -6 -50 -4 -15 5 -42 -19 -46 -40 -5 -26 -23
-30 -42 -12 -11 11 -25 14 -46 10 -28 -6 -31 -4 -31 20 0 29 -14 35 -24 10 -4
-10 -12 -14 -22 -10 -10 4 -22 -1 -30 -11 -12 -16 -13 -16 -14 9 0 26 -2 27
-49 25 -32 -1 -46 -6 -40 -12 5 -5 9 -13 9 -17 0 -13 -17 -9 -33 6 -9 9 -19
11 -28 6 -11 -7 -9 -14 11 -34 13 -15 31 -26 41 -26 9 0 19 -6 22 -12 2 -8 8
-9 13 -4 5 5 4 11 -3 13 -7 3 -13 12 -13 20 0 13 3 13 15 3 10 -9 31 -10 68
-6 96 13 124 8 98 -17 -11 -9 -14 -9 -18 1 -8 21 -23 13 -23 -12 0 -19 -8 -27
-33 -35 -19 -7 -41 -9 -50 -5 -10 3 -17 1 -17 -5 0 -6 -7 -11 -15 -11 -8 0
-15 7 -15 15 0 14 -7 16 -65 19 -11 1 -19 7 -17 14 4 19 -58 42 -82 30 -13 -7
-25 -6 -42 3 -33 17 -94 -4 -120 -42 -22 -34 -34 -37 -34 -9 0 14 -7 20 -24
20 -14 0 -33 12 -47 30 -29 36 -39 38 -39 5 0 -30 -27 -24 -33 8 l-4 22 -8
-22 c-5 -15 -15 -23 -31 -23 -13 0 -24 -5 -24 -11 0 -6 -10 -8 -22 -5 -13 3
-17 3 -10 0 17 -8 15 -24 -3 -24 -25 0 -39 49 -20 70 22 24 19 33 -7 19 -18
-10 -24 -8 -39 10 -21 25 -90 29 -109 6 -7 -8 -25 -15 -40 -15 -24 0 -40 -15
-40 -36 0 -3 17 -2 38 2 30 5 35 4 25 -7 -18 -19 -16 -39 4 -39 12 0 14 -3 6
-11 -8 -8 -17 -7 -32 3 -20 12 -25 10 -53 -21 -21 -23 -32 -30 -38 -22 -5 9
-14 6 -34 -12 -32 -30 -32 -35 0 -71 23 -27 26 -27 38 -11 13 18 14 18 23 0
10 -17 12 -17 42 1 26 15 35 16 51 6 31 -19 57 -14 80 15 16 21 23 24 29 14
11 -18 34 -4 27 16 -9 24 4 35 21 17 12 -11 13 -18 4 -27 -16 -16 -14 -37 5
-37 9 0 18 9 21 20 4 14 14 20 32 20 15 0 32 5 39 12 9 9 16 8 29 -4 24 -21
118 -34 128 -18 4 7 2 16 -5 20 -21 13 7 22 47 14 38 -7 76 -40 68 -61 -2 -6
10 -16 27 -22 38 -14 34 -14 53 5 13 13 13 19 3 32 -12 15 -11 15 12 1 31 -20
180 -20 203 -1 12 10 16 10 20 -2 6 -16 103 -32 139 -23 13 4 31 19 40 35 11
18 29 32 48 35 21 5 28 11 24 22 -7 18 26 21 42 5 16 -16 47 -1 34 15 -8 10
-4 13 21 12 19 -1 34 3 37 12 3 10 -1 12 -18 8 -13 -3 -28 0 -37 8 -12 13 -19
13 -51 -1 -20 -9 -43 -18 -49 -21 -7 -3 -13 -1 -13 5 0 5 11 13 25 16 24 6 36
36 15 36 -5 0 -10 5 -10 11 0 8 4 8 13 2 6 -6 36 -11 66 -12 53 -1 80 13 81
45 0 9 -45 37 -53 33 -1 -1 -20 -5 -42 -9z"/>
<path d="M9693 4499 c-34 -12 -61 -26 -60 -32 1 -7 -14 -12 -36 -14 -21 -1
-52 -9 -69 -18 -17 -8 -37 -15 -43 -15 -7 0 -15 -7 -19 -15 -3 -8 -15 -15 -27
-15 -17 0 -19 -3 -10 -13 13 -16 5 -27 -21 -27 -10 0 -18 7 -18 15 0 10 -10
15 -30 15 -16 0 -30 5 -30 10 0 6 7 10 16 10 27 0 -2 27 -36 34 -17 3 -30 10
-30 15 0 5 9 7 20 4 24 -6 26 3 5 23 -11 12 -18 12 -33 3 -16 -10 -25 -8 -50
9 -31 22 -53 27 -65 15 -8 -8 -45 -13 -109 -15 -27 -1 -48 -4 -48 -6 0 -3 10
-16 22 -29 19 -20 20 -25 8 -34 -10 -5 -11 -12 -5 -16 6 -5 16 -16 24 -25 16
-21 -1 -25 -21 -5 -7 8 -34 14 -60 15 -43 2 -48 0 -54 -23 -3 -14 -10 -23 -14
-20 -5 3 -11 1 -15 -5 -8 -13 -35 -13 -35 0 0 6 7 10 16 10 8 0 12 5 9 10 -3
6 4 14 17 19 13 6 17 10 11 10 -17 1 -17 21 0 21 17 0 49 39 42 50 -4 6 -13
10 -21 10 -8 0 -14 5 -14 11 0 7 -9 9 -24 5 -16 -4 -26 -1 -30 9 -4 12 -11 12
-40 -6 -29 -17 -38 -18 -55 -7 -16 10 -23 10 -33 0 -9 -9 -9 -12 0 -12 9 0 9
-5 0 -22 -7 -13 -17 -26 -22 -29 -5 -4 -5 -12 -2 -18 8 -12 -2 -14 -45 -11
-22 1 -26 -3 -26 -23 0 -28 46 -61 71 -51 10 4 16 1 16 -9 0 -19 94 -34 131
-21 l24 8 -25 7 c-17 4 -8 6 27 5 29 0 55 -6 57 -12 5 -13 183 -9 200 4 17 14
66 24 66 14 0 -19 48 -31 84 -21 20 6 41 7 48 3 7 -4 8 -3 4 5 -6 8 4 10 36 5
24 -4 45 -11 46 -16 7 -17 72 -5 72 13 0 5 -12 6 -27 3 -22 -6 -25 -4 -20 10
4 10 7 20 7 22 0 12 44 1 69 -17 24 -18 34 -19 88 -10 62 10 98 6 121 -12 8
-6 17 -6 26 2 10 8 16 9 21 1 3 -5 33 -10 66 -10 46 0 59 3 59 15 0 19 21 19
46 0 21 -16 99 -21 89 -5 -14 23 8 31 27 10 13 -14 28 -20 41 -16 13 3 25 -1
33 -12 12 -16 14 -16 27 2 10 14 21 17 42 12 18 -5 33 -2 44 8 15 14 21 13 59
-5 l42 -21 42 20 c36 17 56 19 126 15 60 -4 82 -9 82 -19 0 -22 29 -16 55 10
21 22 28 23 65 15 23 -5 46 -6 52 -3 6 4 30 8 53 10 35 2 44 -1 48 -16 4 -16
11 -18 43 -13 22 3 44 12 51 20 13 16 120 13 132 -4 11 -18 68 -23 81 -8 13
16 35 21 26 6 -3 -5 1 -14 9 -21 12 -10 18 -10 30 0 8 6 19 9 24 5 6 -3 21 0
33 7 13 6 31 11 41 9 21 -3 23 15 2 23 -16 6 -21 36 -7 36 12 0 33 -50 27 -61
-4 -5 -1 -9 4 -9 6 0 11 -7 11 -15 0 -20 17 -19 29 2 8 16 14 16 42 6 22 -9
37 -9 51 -2 26 14 19 45 -10 41 -12 -2 -22 2 -22 7 0 6 7 11 15 11 8 0 15 5
15 10 0 7 6 7 19 0 17 -9 21 -5 31 25 10 30 15 34 34 29 16 -4 25 0 29 10 7
18 67 23 67 5 0 -6 -8 -8 -19 -4 -11 3 -22 1 -26 -5 -12 -19 44 -10 64 11 14
15 21 17 26 8 6 -8 13 -5 25 11 l17 23 5 -32 c5 -32 -5 -50 -17 -31 -9 15 -46
12 -66 -6 -20 -18 -40 -20 -91 -10 -38 7 -38 7 -32 -23 5 -23 2 -32 -10 -37
-20 -8 -21 -34 -2 -34 8 0 21 7 30 15 17 17 42 20 51 6 3 -6 27 -13 53 -17 26
-3 53 -11 61 -17 10 -9 16 -7 26 6 7 10 19 15 28 11 8 -3 18 0 22 6 5 8 11 8
21 -1 11 -9 19 -8 35 7 16 15 33 18 73 15 28 -1 56 -7 62 -12 6 -5 25 -5 44 1
24 7 38 6 48 -3 12 -9 16 -9 19 1 6 15 67 16 96 1 16 -9 22 -9 25 0 5 16 22
14 22 -3 0 -8 7 -16 15 -20 8 -3 15 -13 15 -23 0 -16 9 -18 67 -18 65 0 68 1
68 25 0 20 5 25 22 23 11 -1 27 4 33 12 8 10 31 15 69 15 46 -1 52 -3 37 -12
-17 -9 -15 -12 20 -24 52 -18 60 -18 85 7 11 11 27 18 35 15 19 -7 54 23 54
47 0 12 5 17 14 14 9 -4 16 3 20 16 7 29 -1 35 -18 12 -9 -13 -19 -16 -32 -10
-17 7 -18 8 -1 12 9 3 17 13 17 24 0 11 -8 23 -17 27 -14 5 -10 8 15 12 18 3
31 9 30 15 -5 17 -63 4 -80 -18 -10 -12 -18 -17 -19 -12 -1 6 -3 15 -4 20 -2
6 -3 16 -4 23 0 6 -6 12 -11 12 -6 0 -9 -3 -9 -7 4 -23 -3 -33 -22 -33 -18 0
-19 3 -9 15 24 28 -10 47 -39 21 -12 -11 -28 -12 -66 -6 -27 5 -77 6 -109 3
-52 -6 -57 -8 -41 -20 10 -7 19 -21 20 -30 1 -15 -8 -18 -52 -19 -29 -1 -53 2
-53 7 0 15 -39 10 -80 -11 -42 -21 -96 -27 -85 -9 4 6 13 8 21 5 16 -6 44 2
44 13 0 4 -25 8 -55 9 -43 2 -55 -1 -55 -13 0 -8 -7 -15 -15 -15 -8 0 -23 -9
-32 -20 -16 -18 -18 -18 -35 -3 -10 9 -18 22 -18 30 0 22 -34 15 -63 -14 -71
-73 -97 -90 -97 -63 0 6 -11 10 -24 10 -13 0 -26 7 -30 15 -3 9 0 15 10 15 10
0 14 6 11 14 -3 7 2 24 11 37 11 16 12 24 4 27 -7 2 -12 9 -12 16 0 25 -45 36
-86 21 -34 -12 -40 -11 -45 2 -4 13 -7 13 -20 2 -40 -38 -45 -40 -83 -24 -34
14 -38 14 -53 -1 -16 -16 -15 -16 7 -9 23 7 24 7 10 -11 -31 -40 -54 -54 -87
-54 -19 0 -42 -4 -52 -10 -25 -13 -131 -29 -131 -19 0 4 -3 14 -6 22 -4 11 1
13 23 10 27 -4 27 -4 8 12 -11 8 -26 13 -35 9 -59 -25 -130 -23 -130 3 0 11 7
13 24 9 18 -4 25 -1 29 14 7 28 -7 33 -85 35 -49 0 -68 -3 -68 -12 0 -7 7 -13
15 -13 8 0 15 -4 15 -10 0 -12 -27 -13 -32 -1 -1 5 -14 10 -28 11 -51 4 -56 0
-25 -24 28 -23 29 -24 11 -42 -18 -18 -19 -17 -42 11 -19 24 -24 26 -29 13 -4
-9 -13 -19 -21 -22 -19 -7 -54 10 -54 27 0 13 -15 15 -107 18 -86 2 -156 -9
-166 -26 -9 -17 -27 -11 -27 9 0 14 34 29 58 27 15 -2 26 24 17 39 -5 8 -15 4
-31 -11 -18 -17 -27 -20 -35 -12 -6 6 -18 9 -26 6 -8 -3 -13 0 -11 8 4 17 -40
25 -55 10 -8 -8 -4 -11 12 -11 20 0 21 -2 11 -15 -11 -13 -16 -13 -42 1 -16 8
-38 12 -48 9 -27 -9 -25 -25 1 -18 15 4 20 2 17 -8 -3 -9 -22 -13 -58 -13 -55
0 -78 17 -41 29 12 3 21 11 21 16 0 6 -5 7 -10 4 -6 -4 -16 -3 -23 3 -7 5 -25
8 -42 7 -26 -2 -30 -6 -28 -29 2 -24 -6 -30 -34 -27 -6 1 -14 -3 -18 -9 -11
-18 -35 -11 -35 10 0 13 -7 20 -20 20 -11 0 -20 -4 -20 -10 0 -5 5 -10 10 -10
6 0 10 -7 10 -15 0 -8 -5 -15 -11 -15 -5 0 -7 -4 -4 -10 3 -5 -1 -10 -10 -10
-13 0 -16 6 -11 25 5 19 3 23 -9 18 -11 -4 -18 1 -22 16 -3 11 -11 21 -17 21
-25 0 -26 -14 -1 -40 38 -39 25 -60 -35 -60 -27 0 -52 5 -55 10 -6 10 6 14 39
10 12 -1 16 3 11 10 -4 7 -18 10 -30 8 -15 -3 -22 -1 -18 7 6 18 -48 30 -58
13 -7 -10 -10 -10 -21 0 -11 11 -10 16 5 26 21 16 13 21 -57 31 -25 4 -49 11
-52 16 -7 11 -7 11 -81 -12z"/>
<path d="M6556 4479 c-13 -16 -25 -20 -49 -15 -43 8 -73 -14 -81 -59 -9 -45
-26 -46 -26 -1 0 29 -4 34 -31 40 -17 3 -35 4 -39 1 -4 -3 -42 -5 -84 -6 l-76
-1 0 -28 c0 -25 4 -29 47 -36 46 -9 47 -9 47 -49 l1 -39 54 -3 c29 -2 59 1 66
7 9 8 14 8 17 -1 5 -16 261 -17 281 -1 10 9 22 10 40 3 15 -6 38 -7 56 -1 18
5 33 5 36 -1 8 -12 45 -12 45 1 0 6 -8 10 -17 10 -12 0 -14 3 -6 11 8 8 19 6
41 -5 42 -21 60 -20 81 6 17 20 19 21 42 5 29 -21 58 -22 86 -2 16 11 22 12
26 2 2 -7 17 -13 32 -15 16 -1 33 -7 40 -12 18 -15 150 -17 168 -2 8 7 41 15
73 18 32 3 62 8 66 10 4 3 16 0 27 -6 16 -8 22 -6 30 7 9 17 10 17 28 0 24
-21 39 -22 47 -1 5 13 9 14 20 5 9 -8 44 -10 102 -7 49 2 99 5 112 5 16 1 22
7 22 24 0 13 -5 28 -12 35 -9 9 -7 12 9 12 49 0 22 32 -29 35 -3 0 -10 3 -14
8 -4 4 -18 7 -31 7 -15 0 -23 6 -23 18 0 21 -50 42 -101 42 -43 0 -61 -12 -57
-36 2 -15 -4 -20 -30 -22 -18 -2 -40 2 -48 9 -11 9 -17 9 -28 0 -9 -8 -40 -11
-78 -10 -48 2 -73 -2 -102 -18 -24 -12 -35 -23 -27 -27 6 -4 11 -12 11 -17 0
-6 -6 -7 -12 -2 -7 4 -22 7 -33 8 -12 0 -20 7 -20 17 0 10 -6 23 -13 30 -6 6
-12 18 -12 26 0 10 -8 12 -29 7 -24 -5 -32 -2 -42 16 -11 21 -13 21 -24 6 -14
-19 -56 -23 -52 -5 3 15 -27 22 -60 13 -20 -5 -24 -11 -21 -30 3 -13 0 -26 -6
-29 -7 -3 -6 -8 4 -15 18 -12 9 -24 -14 -15 -9 3 -16 15 -16 25 0 10 -4 19
-10 19 -5 0 -10 -7 -10 -15 0 -13 -4 -14 -20 -5 -11 6 -49 10 -85 9 -53 -2
-68 -6 -91 -28 -33 -30 -67 -36 -59 -10 6 19 -10 35 -20 19 -3 -5 -11 -10 -17
-10 -7 0 -6 5 1 14 8 10 9 16 1 21 -5 3 -10 14 -10 25 0 35 -66 42 -94 9z"/>
<path d="M8161 4481 c-8 -5 -19 -7 -26 -5 -13 5 -65 -39 -65 -56 0 -5 -4 -10
-10 -10 -5 0 -10 5 -10 10 0 6 -7 10 -15 10 -18 0 -18 -5 -5 -30 7 -14 6 -20
-6 -24 -9 -4 -22 -2 -29 4 -7 6 -15 6 -22 -1 -7 -7 -13 -7 -17 -1 -13 21 -43
1 -43 -29 0 -25 4 -29 29 -29 16 0 38 5 49 11 16 8 25 7 39 -6 12 -11 28 -15
42 -12 13 3 43 2 67 -3 27 -5 55 -4 70 2 17 6 27 6 29 -1 2 -6 8 -11 14 -11 6
0 6 6 -2 15 -7 8 -19 15 -27 15 -8 0 -11 5 -8 10 4 7 15 4 29 -7 32 -25 162
-26 158 -1 -1 9 2 19 8 23 5 3 10 -1 10 -9 0 -25 29 -19 61 13 16 16 29 25 29
20 0 -5 7 -9 15 -9 8 0 15 5 15 11 0 6 7 8 16 5 8 -3 24 -1 34 4 15 8 16 14 7
35 -12 26 -31 33 -42 15 -4 -6 -13 -7 -23 -2 -9 5 -47 7 -84 4 -52 -3 -68 -8
-68 -19 0 -11 -7 -13 -25 -9 -17 4 -25 2 -25 -7 0 -8 -11 -19 -25 -25 -32 -15
-45 -15 -45 -2 0 6 9 10 19 10 11 0 23 5 26 10 4 6 -5 10 -19 10 -17 0 -26 6
-26 15 0 11 -8 15 -27 13 -24 -3 -28 1 -28 22 0 26 -20 36 -44 21z"/>
<path d="M5647 4443 c-21 -2 -41 -11 -43 -18 -5 -11 -10 -12 -24 -2 -22 13
-39 2 -22 -15 16 -16 15 -31 -2 -25 -24 9 -27 -5 -5 -21 18 -12 22 -12 33 3
10 14 20 16 42 10 16 -4 23 -10 17 -12 -7 -3 -13 -9 -13 -15 0 -6 8 -7 18 -3
9 4 24 8 32 9 30 4 75 19 87 28 16 12 5 38 -16 38 -9 0 -25 7 -35 15 -11 8
-22 14 -25 13 -3 -1 -23 -3 -44 -5z"/>
<path d="M5856 4351 c-10 -1 -33 -12 -50 -23 -17 -11 -23 -18 -13 -14 9 3 17
1 17 -4 0 -6 -5 -10 -11 -10 -5 0 -7 -4 -4 -10 3 -5 18 -10 33 -10 15 0 34 -4
41 -9 9 -6 22 -6 34 0 10 6 57 11 105 11 48 0 98 5 111 11 19 9 25 9 28 0 6
-18 20 -16 27 5 3 9 9 23 12 29 4 9 -3 11 -25 7 -21 -4 -31 -3 -31 5 0 8 8 10
20 6 12 -4 20 -2 20 5 0 10 -262 11 -314 1z"/>
</g>
</svg>
