<svg version="1.1" xmlns="http://www.w3.org/2000/svg" viewBox="0 0 2048 1085" width="1024" height="543">
	<g id="line">
		<path d="M19255 4620 c-4 -6 -13 -9 -21 -6 -8 3 -27 1 -42 -5 -15 -6 -42 -13
-59 -15 -50 -7 -83 -22 -83 -38 0 -19 17 -29 25 -15 4 6 17 8 30 5 29 -7 39 4
17 20 -14 11 -15 13 -1 14 16 0 39 -18 39 -31 0 -4 -9 -11 -20 -14 -30 -9 -13
-26 18 -19 15 4 32 10 37 14 16 12 65 21 65 13 0 -22 166 1 174 24 5 13 -15
39 -34 43 -3 1 -14 4 -25 6 -11 3 -26 5 -32 4 -7 0 -21 -1 -30 -2 -10 0 -25 2
-34 6 -10 4 -20 2 -24 -4z"/>
		<path d="M18625 4560 c-3 -5 -23 -10 -43 -10 -34 0 -35 -1 -16 -15 18 -14 17
-14 -13 -15 -23 0 -33 5 -33 15 0 8 -4 15 -10 15 -5 0 -10 -6 -10 -14 0 -7
-14 -16 -32 -20 -35 -7 -50 0 -28 14 8 5 11 12 7 16 -10 11 -62 -31 -61 -49 1
-9 -5 -13 -17 -10 -10 3 -16 10 -13 17 5 14 -36 36 -68 36 -12 0 -29 -7 -38
-15 -9 -8 -42 -16 -78 -18 -34 -2 -68 -9 -76 -16 -12 -10 -24 -9 -61 4 -45 15
-48 14 -76 -6 l-29 -20 -26 20 c-28 22 -53 19 -33 -5 9 -11 8 -14 -4 -14 -8 0
-18 7 -21 16 -5 14 -9 13 -36 -3 -38 -22 -38 -32 0 -39 17 -4 30 -11 30 -16 0
-6 -11 -7 -25 -4 -17 4 -31 1 -41 -9 -14 -13 -14 -15 2 -15 10 0 15 -3 12 -6
-8 -7 -86 14 -93 25 -3 5 5 7 17 3 14 -3 19 -2 14 6 -4 7 -13 12 -19 12 -7 0
-21 14 -31 31 -13 21 -23 28 -34 24 -10 -4 -46 -8 -81 -11 -80 -5 -104 -12
-97 -29 3 -8 -2 -19 -10 -25 -12 -10 -14 -7 -14 17 0 39 -8 45 -34 28 -27 -19
-42 -19 -26 0 10 13 9 15 -11 15 -82 1 -95 -2 -109 -21 -12 -15 -18 -17 -27
-8 -8 8 -16 9 -25 2 -7 -5 -39 -9 -71 -9 -32 1 -61 -2 -63 -6 -7 -11 -24 -10
-24 1 0 5 13 12 30 16 30 6 47 21 37 32 -10 9 -87 -30 -87 -44 0 -7 -7 -13
-15 -13 -8 0 -15 -4 -15 -10 0 -5 -4 -10 -10 -10 -5 0 -10 6 -10 14 0 13 -28
26 -57 26 -7 0 -13 -11 -13 -25 0 -14 4 -25 9 -25 5 0 12 -11 15 -25 5 -20 13
-25 37 -25 24 0 30 4 25 15 -4 10 1 15 15 15 14 0 19 -5 16 -14 -9 -22 32 -48
77 -48 84 -1 154 19 126 37 -5 3 -10 11 -10 17 0 6 12 3 26 -7 15 -9 35 -14
48 -11 12 3 31 -1 43 -9 17 -12 26 -12 64 0 24 7 38 14 32 14 -7 1 -13 6 -13
12 0 6 9 8 20 4 13 -4 20 -2 20 7 0 21 37 41 47 25 14 -22 61 -40 87 -33 23 6
26 3 26 -18 0 -26 27 -43 44 -26 8 8 7 13 -3 19 -11 7 -12 11 0 23 16 17 62 1
54 -20 -7 -20 26 -28 37 -8 6 11 16 15 28 11 10 -3 21 -1 25 4 4 7 12 7 25 -1
14 -9 22 -9 34 1 13 11 19 11 31 1 9 -7 18 -10 22 -6 4 3 17 -4 29 -15 18 -17
27 -19 37 -11 9 8 17 8 24 1 7 -7 17 1 34 28 28 47 58 75 72 66 5 -3 3 -10 -7
-15 -27 -15 -8 -26 36 -21 32 5 44 2 54 -12 10 -13 28 -19 63 -19 27 -1 53 -4
56 -8 4 -4 17 -3 29 2 14 5 28 3 41 -6 21 -16 65 -19 65 -5 0 5 -6 11 -12 14
-7 2 29 3 81 2 75 -1 95 -5 102 -18 8 -13 20 -15 62 -10 28 3 55 11 59 17 4 6
46 12 100 13 150 3 172 2 183 -6 18 -14 69 -20 88 -9 12 6 23 6 32 -2 10 -9
19 -8 36 0 11 7 34 10 50 8 16 -3 29 -1 29 3 0 3 39 6 86 5 47 -1 88 2 90 6 3
5 16 8 30 8 14 0 33 7 41 16 14 13 14 17 2 25 -11 7 -9 9 7 9 12 0 27 7 34 15
9 11 16 12 25 5 12 -10 56 -5 78 7 5 3 -1 12 -12 20 -12 8 -25 11 -31 8 -5 -3
-19 -1 -30 5 -11 6 -35 13 -53 16 -88 14 -109 13 -152 -7 -26 -12 -52 -18 -64
-14 -16 5 -21 2 -21 -10 0 -27 -25 -11 -28 18 -2 14 -11 29 -21 32 -24 7 -53
-4 -48 -19 3 -7 -12 -11 -40 -12 -25 -1 -48 -5 -51 -10 -10 -14 -59 -34 -66
-27 -12 12 -6 23 14 23 11 0 20 4 20 9 0 4 -23 9 -52 10 -28 0 -53 3 -56 5 -2
3 -15 1 -28 -4 -20 -8 -24 -6 -24 10 0 10 5 22 11 25 17 11 -23 34 -58 35 -26
0 -33 -4 -33 -19 0 -11 -5 -23 -10 -26 -7 -4 -9 2 -4 19 6 26 6 26 -59 26 -43
0 -67 -4 -71 -12 -5 -10 -7 -10 -12 0 -7 14 -40 16 -49 2z"/>
		<path d="M15696 4521 c-19 -20 -56 -34 -56 -21 0 5 6 10 13 13 31 11 -3 14
-50 4 -56 -12 -66 -22 -33 -32 14 -4 20 -15 20 -35 0 -32 -14 -40 -72 -40 -36
0 -39 2 -27 16 11 14 8 15 -33 10 -35 -4 -47 -2 -52 9 -6 17 -52 20 -61 5 -3
-5 -1 -10 4 -10 20 0 11 -15 -19 -32 -17 -10 -32 -13 -35 -7 -4 5 -25 9 -48 9
-23 0 -48 4 -56 9 -15 9 -71 -3 -80 -17 -9 -13 -61 -24 -61 -13 0 13 -18 17
-123 31 -75 10 -87 15 -82 29 3 9 -1 25 -8 35 -11 15 -17 16 -34 7 -14 -7 -19
-17 -16 -30 4 -16 -1 -18 -36 -16 -23 1 -43 4 -44 6 -1 2 -7 13 -13 24 -6 11
-20 22 -30 24 -18 3 -18 3 -1 -17 13 -14 15 -22 7 -27 -7 -4 -17 -2 -23 4 -6
6 -22 11 -35 11 -15 0 -26 7 -29 20 -9 36 -73 16 -73 -23 0 -20 -9 -26 -31
-20 -21 6 -26 29 -6 36 6 3 1 6 -12 6 -21 1 -22 3 -10 18 13 15 11 16 -11 10
-14 -4 -53 -12 -87 -19 -40 -7 -63 -16 -63 -25 0 -15 46 -18 55 -3 9 15 24 12
21 -4 -4 -26 -31 -42 -73 -41 -27 0 -44 -4 -48 -13 -7 -19 4 -34 21 -28 8 3
21 3 29 0 27 -11 5 -24 -41 -24 -24 0 -44 -4 -44 -9 0 -4 12 -6 28 -3 25 5 26
4 13 -12 -8 -10 -23 -15 -33 -13 -10 3 -21 1 -24 -4 -3 -5 -19 -9 -35 -9 -38
0 -30 -15 19 -36 59 -25 126 -21 162 10 18 14 30 26 28 27 -2 0 -14 2 -28 5
-63 10 -74 15 -59 24 7 5 22 7 31 4 10 -3 23 -2 30 3 7 4 32 8 56 8 37 1 42
-2 42 -21 0 -12 -8 -25 -17 -28 -11 -5 -13 -10 -6 -17 8 -8 19 -6 38 7 19 12
23 19 13 25 -18 12 -3 22 21 14 17 -5 19 -10 11 -25 -6 -10 -10 -21 -10 -23 0
-17 136 -31 155 -16 6 4 30 7 54 6 47 -3 68 8 73 37 2 16 12 20 46 21 28 1 42
-3 42 -12 0 -16 -5 -17 69 8 l63 20 15 -20 c8 -12 23 -21 35 -21 17 0 18 -2 8
-15 -16 -19 -34 -19 -50 0 -14 17 -32 11 -24 -10 4 -10 26 -13 85 -13 68 0 80
2 77 16 -2 9 -18 20 -36 24 -33 9 -41 21 -21 34 6 3 24 -3 39 -15 17 -12 31
-17 35 -11 3 6 1 10 -4 10 -6 0 -11 5 -11 11 0 7 -8 18 -17 25 -17 12 -16 13
4 14 12 0 26 -7 31 -17 5 -9 18 -17 28 -18 52 -4 90 -35 44 -35 -11 0 -20 -5
-20 -11 0 -7 11 -9 29 -6 20 4 33 1 42 -9 24 -29 46 -34 82 -19 18 7 43 12 54
9 26 -7 40 12 15 20 -12 4 -18 15 -17 29 1 18 8 22 43 25 33 2 42 0 42 -12 0
-9 3 -16 8 -17 4 0 20 -2 36 -4 33 -4 54 4 37 14 -6 4 6 8 27 8 20 1 53 3 72
5 29 3 35 0 33 -16 -2 -33 23 -49 67 -42 26 4 40 2 43 -7 3 -9 8 -9 21 2 12
10 20 11 24 4 4 -6 26 -14 48 -17 44 -8 60 6 47 41 -4 11 -3 14 5 9 7 -4 12
-13 12 -21 0 -25 20 -27 56 -6 19 12 43 21 53 21 10 0 24 7 31 15 8 10 17 12
24 6 6 -5 49 -11 94 -13 74 -4 85 -3 95 14 16 24 27 23 27 -3 0 -17 4 -20 28
-15 21 5 140 7 322 6 35 0 170 19 181 25 6 4 15 1 20 -6 6 -11 11 -11 21 -1 9
9 9 12 -5 12 -11 0 -17 8 -17 25 0 14 -4 25 -10 25 -5 0 -10 16 -10 35 0 36
-25 60 -53 49 -13 -5 -67 -11 -117 -13 -18 -1 -21 -4 -13 -12 9 -9 8 -15 -2
-25 -16 -16 -49 -19 -40 -4 4 6 -7 10 -25 10 -18 0 -29 -4 -25 -10 9 -14 -29
-12 -43 2 -8 8 -12 9 -12 1 0 -6 5 -13 12 -15 13 -5 2 -28 -13 -28 -6 0 -7 5
-4 10 9 14 -18 22 -78 24 -33 1 -51 5 -50 13 1 6 -4 17 -12 23 -18 15 -45 -2
-45 -27 0 -9 -6 -13 -15 -10 -8 4 -17 2 -21 -4 -7 -11 -56 -4 -91 13 -18 9
-20 14 -12 25 9 10 5 13 -19 13 -16 0 -35 7 -43 16 -11 14 -14 14 -23 1 -6 -8
-27 -16 -46 -19 -31 -5 -40 0 -73 34 -27 28 -44 38 -55 33 -9 -4 -29 -8 -44
-9 -38 -3 -43 -11 -20 -36 19 -21 21 -21 30 -3 6 10 14 14 18 10 14 -13 -49
-57 -71 -50 -11 3 -21 10 -23 14 -5 12 -42 11 -42 0 0 -5 6 -11 13 -14 23 -9
-7 -24 -33 -16 -14 4 -19 7 -12 8 7 1 11 5 7 11 -3 5 -12 7 -19 4 -8 -3 -26 6
-40 21 -31 31 -32 35 -7 35 13 0 21 -8 23 -22 l3 -23 14 24 c14 26 8 36 -30
45 -19 4 -31 0 -43 -13z"/>
		<path d="M14125 4520 c-22 -4 -44 -6 -50 -4 -15 5 -42 -19 -46 -40 -5 -26 -23
-30 -42 -12 -11 11 -25 14 -46 10 -28 -6 -31 -4 -31 20 0 29 -14 35 -24 10 -4
-10 -12 -14 -22 -10 -10 4 -22 -1 -30 -11 -12 -16 -13 -16 -14 9 0 26 -2 27
-49 25 -32 -1 -46 -6 -40 -12 5 -5 9 -13 9 -17 0 -13 -17 -9 -33 6 -9 9 -19
11 -28 6 -11 -7 -9 -14 11 -34 13 -15 31 -26 41 -26 9 0 19 -6 22 -12 2 -8 8
-9 13 -4 5 5 4 11 -3 13 -7 3 -13 12 -13 20 0 13 3 13 15 3 10 -9 31 -10 68
-6 96 13 124 8 98 -17 -11 -9 -14 -9 -18 1 -8 21 -23 13 -23 -12 0 -19 -8 -27
-33 -35 -19 -7 -41 -9 -50 -5 -10 3 -17 1 -17 -5 0 -6 -7 -11 -15 -11 -8 0
-15 7 -15 15 0 14 -7 16 -65 19 -11 1 -19 7 -17 14 4 19 -58 42 -82 30 -13 -7
-25 -6 -42 3 -33 17 -94 -4 -120 -42 -22 -34 -34 -37 -34 -9 0 14 -7 20 -24
20 -14 0 -33 12 -47 30 -29 36 -39 38 -39 5 0 -30 -27 -24 -33 8 l-4 22 -8
-22 c-5 -15 -15 -23 -31 -23 -13 0 -24 -5 -24 -11 0 -6 -10 -8 -22 -5 -13 3
-17 3 -10 0 17 -8 15 -24 -3 -24 -25 0 -39 49 -20 70 22 24 19 33 -7 19 -18
-10 -24 -8 -39 10 -21 25 -90 29 -109 6 -7 -8 -25 -15 -40 -15 -24 0 -40 -15
-40 -36 0 -3 17 -2 38 2 30 5 35 4 25 -7 -18 -19 -16 -39 4 -39 12 0 14 -3 6
-11 -8 -8 -17 -7 -32 3 -20 12 -25 10 -53 -21 -21 -23 -32 -30 -38 -22 -5 9
-14 6 -34 -12 -32 -30 -32 -35 0 -71 23 -27 26 -27 38 -11 13 18 14 18 23 0
10 -17 12 -17 42 1 26 15 35 16 51 6 31 -19 57 -14 80 15 16 21 23 24 29 14
11 -18 34 -4 27 16 -9 24 4 35 21 17 12 -11 13 -18 4 -27 -16 -16 -14 -37 5
-37 9 0 18 9 21 20 4 14 14 20 32 20 15 0 32 5 39 12 9 9 16 8 29 -4 24 -21
118 -34 128 -18 4 7 2 16 -5 20 -21 13 7 22 47 14 38 -7 76 -40 68 -61 -2 -6
10 -16 27 -22 38 -14 34 -14 53 5 13 13 13 19 3 32 -12 15 -11 15 12 1 31 -20
180 -20 203 -1 12 10 16 10 20 -2 6 -16 103 -32 139 -23 13 4 31 19 40 35 11
18 29 32 48 35 21 5 28 11 24 22 -7 18 26 21 42 5 16 -16 47 -1 34 15 -8 10
-4 13 21 12 19 -1 34 3 37 12 3 10 -1 12 -18 8 -13 -3 -28 0 -37 8 -12 13 -19
13 -51 -1 -20 -9 -43 -18 -49 -21 -7 -3 -13 -1 -13 5 0 5 11 13 25 16 24 6 36
36 15 36 -5 0 -10 5 -10 11 0 8 4 8 13 2 6 -6 36 -11 66 -12 53 -1 80 13 81
45 0 9 -45 37 -53 33 -1 -1 -20 -5 -42 -9z"/>
		<path d="M9693 4499 c-34 -12 -61 -26 -60 -32 1 -7 -14 -12 -36 -14 -21 -1
-52 -9 -69 -18 -17 -8 -37 -15 -43 -15 -7 0 -15 -7 -19 -15 -3 -8 -15 -15 -27
-15 -17 0 -19 -3 -10 -13 13 -16 5 -27 -21 -27 -10 0 -18 7 -18 15 0 10 -10
15 -30 15 -16 0 -30 5 -30 10 0 6 7 10 16 10 27 0 -2 27 -36 34 -17 3 -30 10
-30 15 0 5 9 7 20 4 24 -6 26 3 5 23 -11 12 -18 12 -33 3 -16 -10 -25 -8 -50
9 -31 22 -53 27 -65 15 -8 -8 -45 -13 -109 -15 -27 -1 -48 -4 -48 -6 0 -3 10
-16 22 -29 19 -20 20 -25 8 -34 -10 -5 -11 -12 -5 -16 6 -5 16 -16 24 -25 16
-21 -1 -25 -21 -5 -7 8 -34 14 -60 15 -43 2 -48 0 -54 -23 -3 -14 -10 -23 -14
-20 -5 3 -11 1 -15 -5 -8 -13 -35 -13 -35 0 0 6 7 10 16 10 8 0 12 5 9 10 -3
6 4 14 17 19 13 6 17 10 11 10 -17 1 -17 21 0 21 17 0 49 39 42 50 -4 6 -13
10 -21 10 -8 0 -14 5 -14 11 0 7 -9 9 -24 5 -16 -4 -26 -1 -30 9 -4 12 -11 12
-40 -6 -29 -17 -38 -18 -55 -7 -16 10 -23 10 -33 0 -9 -9 -9 -12 0 -12 9 0 9
-5 0 -22 -7 -13 -17 -26 -22 -29 -5 -4 -5 -12 -2 -18 8 -12 -2 -14 -45 -11
-22 1 -26 -3 -26 -23 0 -28 46 -61 71 -51 10 4 16 1 16 -9 0 -19 94 -34 131
-21 l24 8 -25 7 c-17 4 -8 6 27 5 29 0 55 -6 57 -12 5 -13 183 -9 200 4 17 14
66 24 66 14 0 -19 48 -31 84 -21 20 6 41 7 48 3 7 -4 8 -3 4 5 -6 8 4 10 36 5
24 -4 45 -11 46 -16 7 -17 72 -5 72 13 0 5 -12 6 -27 3 -22 -6 -25 -4 -20 10
4 10 7 20 7 22 0 12 44 1 69 -17 24 -18 34 -19 88 -10 62 10 98 6 121 -12 8
-6 17 -6 26 2 10 8 16 9 21 1 3 -5 33 -10 66 -10 46 0 59 3 59 15 0 19 21 19
46 0 21 -16 99 -21 89 -5 -14 23 8 31 27 10 13 -14 28 -20 41 -16 13 3 25 -1
33 -12 12 -16 14 -16 27 2 10 14 21 17 42 12 18 -5 33 -2 44 8 15 14 21 13 59
-5 l42 -21 42 20 c36 17 56 19 126 15 60 -4 82 -9 82 -19 0 -22 29 -16 55 10
21 22 28 23 65 15 23 -5 46 -6 52 -3 6 4 30 8 53 10 35 2 44 -1 48 -16 4 -16
11 -18 43 -13 22 3 44 12 51 20 13 16 120 13 132 -4 11 -18 68 -23 81 -8 13
16 35 21 26 6 -3 -5 1 -14 9 -21 12 -10 18 -10 30 0 8 6 19 9 24 5 6 -3 21 0
33 7 13 6 31 11 41 9 21 -3 23 15 2 23 -16 6 -21 36 -7 36 12 0 33 -50 27 -61
-4 -5 -1 -9 4 -9 6 0 11 -7 11 -15 0 -20 17 -19 29 2 8 16 14 16 42 6 22 -9
37 -9 51 -2 26 14 19 45 -10 41 -12 -2 -22 2 -22 7 0 6 7 11 15 11 8 0 15 5
15 10 0 7 6 7 19 0 17 -9 21 -5 31 25 10 30 15 34 34 29 16 -4 25 0 29 10 7
18 67 23 67 5 0 -6 -8 -8 -19 -4 -11 3 -22 1 -26 -5 -12 -19 44 -10 64 11 14
15 21 17 26 8 6 -8 13 -5 25 11 l17 23 5 -32 c5 -32 -5 -50 -17 -31 -9 15 -46
12 -66 -6 -20 -18 -40 -20 -91 -10 -38 7 -38 7 -32 -23 5 -23 2 -32 -10 -37
-20 -8 -21 -34 -2 -34 8 0 21 7 30 15 17 17 42 20 51 6 3 -6 27 -13 53 -17 26
-3 53 -11 61 -17 10 -9 16 -7 26 6 7 10 19 15 28 11 8 -3 18 0 22 6 5 8 11 8
21 -1 11 -9 19 -8 35 7 16 15 33 18 73 15 28 -1 56 -7 62 -12 6 -5 25 -5 44 1
24 7 38 6 48 -3 12 -9 16 -9 19 1 6 15 67 16 96 1 16 -9 22 -9 25 0 5 16 22
14 22 -3 0 -8 7 -16 15 -20 8 -3 15 -13 15 -23 0 -16 9 -18 67 -18 65 0 68 1
68 25 0 20 5 25 22 23 11 -1 27 4 33 12 8 10 31 15 69 15 46 -1 52 -3 37 -12
-17 -9 -15 -12 20 -24 52 -18 60 -18 85 7 11 11 27 18 35 15 19 -7 54 23 54
47 0 12 5 17 14 14 9 -4 16 3 20 16 7 29 -1 35 -18 12 -9 -13 -19 -16 -32 -10
-17 7 -18 8 -1 12 9 3 17 13 17 24 0 11 -8 23 -17 27 -14 5 -10 8 15 12 18 3
31 9 30 15 -5 17 -63 4 -80 -18 -10 -12 -18 -17 -19 -12 -1 6 -3 15 -4 20 -2
6 -3 16 -4 23 0 6 -6 12 -11 12 -6 0 -9 -3 -9 -7 4 -23 -3 -33 -22 -33 -18 0
-19 3 -9 15 24 28 -10 47 -39 21 -12 -11 -28 -12 -66 -6 -27 5 -77 6 -109 3
-52 -6 -57 -8 -41 -20 10 -7 19 -21 20 -30 1 -15 -8 -18 -52 -19 -29 -1 -53 2
-53 7 0 15 -39 10 -80 -11 -42 -21 -96 -27 -85 -9 4 6 13 8 21 5 16 -6 44 2
44 13 0 4 -25 8 -55 9 -43 2 -55 -1 -55 -13 0 -8 -7 -15 -15 -15 -8 0 -23 -9
-32 -20 -16 -18 -18 -18 -35 -3 -10 9 -18 22 -18 30 0 22 -34 15 -63 -14 -71
-73 -97 -90 -97 -63 0 6 -11 10 -24 10 -13 0 -26 7 -30 15 -3 9 0 15 10 15 10
0 14 6 11 14 -3 7 2 24 11 37 11 16 12 24 4 27 -7 2 -12 9 -12 16 0 25 -45 36
-86 21 -34 -12 -40 -11 -45 2 -4 13 -7 13 -20 2 -40 -38 -45 -40 -83 -24 -34
14 -38 14 -53 -1 -16 -16 -15 -16 7 -9 23 7 24 7 10 -11 -31 -40 -54 -54 -87
-54 -19 0 -42 -4 -52 -10 -25 -13 -131 -29 -131 -19 0 4 -3 14 -6 22 -4 11 1
13 23 10 27 -4 27 -4 8 12 -11 8 -26 13 -35 9 -59 -25 -130 -23 -130 3 0 11 7
13 24 9 18 -4 25 -1 29 14 7 28 -7 33 -85 35 -49 0 -68 -3 -68 -12 0 -7 7 -13
15 -13 8 0 15 -4 15 -10 0 -12 -27 -13 -32 -1 -1 5 -14 10 -28 11 -51 4 -56 0
-25 -24 28 -23 29 -24 11 -42 -18 -18 -19 -17 -42 11 -19 24 -24 26 -29 13 -4
-9 -13 -19 -21 -22 -19 -7 -54 10 -54 27 0 13 -15 15 -107 18 -86 2 -156 -9
-166 -26 -9 -17 -27 -11 -27 9 0 14 34 29 58 27 15 -2 26 24 17 39 -5 8 -15 4
-31 -11 -18 -17 -27 -20 -35 -12 -6 6 -18 9 -26 6 -8 -3 -13 0 -11 8 4 17 -40
25 -55 10 -8 -8 -4 -11 12 -11 20 0 21 -2 11 -15 -11 -13 -16 -13 -42 1 -16 8
-38 12 -48 9 -27 -9 -25 -25 1 -18 15 4 20 2 17 -8 -3 -9 -22 -13 -58 -13 -55
0 -78 17 -41 29 12 3 21 11 21 16 0 6 -5 7 -10 4 -6 -4 -16 -3 -23 3 -7 5 -25
8 -42 7 -26 -2 -30 -6 -28 -29 2 -24 -6 -30 -34 -27 -6 1 -14 -3 -18 -9 -11
-18 -35 -11 -35 10 0 13 -7 20 -20 20 -11 0 -20 -4 -20 -10 0 -5 5 -10 10 -10
6 0 10 -7 10 -15 0 -8 -5 -15 -11 -15 -5 0 -7 -4 -4 -10 3 -5 -1 -10 -10 -10
-13 0 -16 6 -11 25 5 19 3 23 -9 18 -11 -4 -18 1 -22 16 -3 11 -11 21 -17 21
-25 0 -26 -14 -1 -40 38 -39 25 -60 -35 -60 -27 0 -52 5 -55 10 -6 10 6 14 39
10 12 -1 16 3 11 10 -4 7 -18 10 -30 8 -15 -3 -22 -1 -18 7 6 18 -48 30 -58
13 -7 -10 -10 -10 -21 0 -11 11 -10 16 5 26 21 16 13 21 -57 31 -25 4 -49 11
-52 16 -7 11 -7 11 -81 -12z"/>
		<path d="M6556 4479 c-13 -16 -25 -20 -49 -15 -43 8 -73 -14 -81 -59 -9 -45
-26 -46 -26 -1 0 29 -4 34 -31 40 -17 3 -35 4 -39 1 -4 -3 -42 -5 -84 -6 l-76
-1 0 -28 c0 -25 4 -29 47 -36 46 -9 47 -9 47 -49 l1 -39 54 -3 c29 -2 59 1 66
7 9 8 14 8 17 -1 5 -16 261 -17 281 -1 10 9 22 10 40 3 15 -6 38 -7 56 -1 18
5 33 5 36 -1 8 -12 45 -12 45 1 0 6 -8 10 -17 10 -12 0 -14 3 -6 11 8 8 19 6
41 -5 42 -21 60 -20 81 6 17 20 19 21 42 5 29 -21 58 -22 86 -2 16 11 22 12
26 2 2 -7 17 -13 32 -15 16 -1 33 -7 40 -12 18 -15 150 -17 168 -2 8 7 41 15
73 18 32 3 62 8 66 10 4 3 16 0 27 -6 16 -8 22 -6 30 7 9 17 10 17 28 0 24
-21 39 -22 47 -1 5 13 9 14 20 5 9 -8 44 -10 102 -7 49 2 99 5 112 5 16 1 22
7 22 24 0 13 -5 28 -12 35 -9 9 -7 12 9 12 49 0 22 32 -29 35 -3 0 -10 3 -14
8 -4 4 -18 7 -31 7 -15 0 -23 6 -23 18 0 21 -50 42 -101 42 -43 0 -61 -12 -57
-36 2 -15 -4 -20 -30 -22 -18 -2 -40 2 -48 9 -11 9 -17 9 -28 0 -9 -8 -40 -11
-78 -10 -48 2 -73 -2 -102 -18 -24 -12 -35 -23 -27 -27 6 -4 11 -12 11 -17 0
-6 -6 -7 -12 -2 -7 4 -22 7 -33 8 -12 0 -20 7 -20 17 0 10 -6 23 -13 30 -6 6
-12 18 -12 26 0 10 -8 12 -29 7 -24 -5 -32 -2 -42 16 -11 21 -13 21 -24 6 -14
-19 -56 -23 -52 -5 3 15 -27 22 -60 13 -20 -5 -24 -11 -21 -30 3 -13 0 -26 -6
-29 -7 -3 -6 -8 4 -15 18 -12 9 -24 -14 -15 -9 3 -16 15 -16 25 0 10 -4 19
-10 19 -5 0 -10 -7 -10 -15 0 -13 -4 -14 -20 -5 -11 6 -49 10 -85 9 -53 -2
-68 -6 -91 -28 -33 -30 -67 -36 -59 -10 6 19 -10 35 -20 19 -3 -5 -11 -10 -17
-10 -7 0 -6 5 1 14 8 10 9 16 1 21 -5 3 -10 14 -10 25 0 35 -66 42 -94 9z"/>
		<path d="M8161 4481 c-8 -5 -19 -7 -26 -5 -13 5 -65 -39 -65 -56 0 -5 -4 -10
-10 -10 -5 0 -10 5 -10 10 0 6 -7 10 -15 10 -18 0 -18 -5 -5 -30 7 -14 6 -20
-6 -24 -9 -4 -22 -2 -29 4 -7 6 -15 6 -22 -1 -7 -7 -13 -7 -17 -1 -13 21 -43
1 -43 -29 0 -25 4 -29 29 -29 16 0 38 5 49 11 16 8 25 7 39 -6 12 -11 28 -15
42 -12 13 3 43 2 67 -3 27 -5 55 -4 70 2 17 6 27 6 29 -1 2 -6 8 -11 14 -11 6
0 6 6 -2 15 -7 8 -19 15 -27 15 -8 0 -11 5 -8 10 4 7 15 4 29 -7 32 -25 162
-26 158 -1 -1 9 2 19 8 23 5 3 10 -1 10 -9 0 -25 29 -19 61 13 16 16 29 25 29
20 0 -5 7 -9 15 -9 8 0 15 5 15 11 0 6 7 8 16 5 8 -3 24 -1 34 4 15 8 16 14 7
35 -12 26 -31 33 -42 15 -4 -6 -13 -7 -23 -2 -9 5 -47 7 -84 4 -52 -3 -68 -8
-68 -19 0 -11 -7 -13 -25 -9 -17 4 -25 2 -25 -7 0 -8 -11 -19 -25 -25 -32 -15
-45 -15 -45 -2 0 6 9 10 19 10 11 0 23 5 26 10 4 6 -5 10 -19 10 -17 0 -26 6
-26 15 0 11 -8 15 -27 13 -24 -3 -28 1 -28 22 0 26 -20 36 -44 21z"/>
		<path d="M5647 4443 c-21 -2 -41 -11 -43 -18 -5 -11 -10 -12 -24 -2 -22 13
-39 2 -22 -15 16 -16 15 -31 -2 -25 -24 9 -27 -5 -5 -21 18 -12 22 -12 33 3
10 14 20 16 42 10 16 -4 23 -10 17 -12 -7 -3 -13 -9 -13 -15 0 -6 8 -7 18 -3
9 4 24 8 32 9 30 4 75 19 87 28 16 12 5 38 -16 38 -9 0 -25 7 -35 15 -11 8
-22 14 -25 13 -3 -1 -23 -3 -44 -5z"/>
		<path d="M5856 4351 c-10 -1 -33 -12 -50 -23 -17 -11 -23 -18 -13 -14 9 3 17
1 17 -4 0 -6 -5 -10 -11 -10 -5 0 -7 -4 -4 -10 3 -5 18 -10 33 -10 15 0 34 -4
41 -9 9 -6 22 -6 34 0 10 6 57 11 105 11 48 0 98 5 111 11 19 9 25 9 28 0 6
-18 20 -16 27 5 3 9 9 23 12 29 4 9 -3 11 -25 7 -21 -4 -31 -3 -31 5 0 8 8 10
20 6 12 -4 20 -2 20 5 0 10 -262 11 -314 1z"/>
	</g>
</svg>