<svg version="1.1" xmlns="http://www.w3.org/2000/svg" viewBox="0 0 2048 1085" width="1024" height="543">
	<g id="tekst">
		<!-- Hoboken -->
		<g id="hoboken">
<!-- H-->	<path d="M13860 6073 c-8 -3 -18 -11 -23 -17 -4 -6 -6 -134 -5 -285 2 -316 6
-301 -94 -301 -32 0 -58 1 -59 3 0 1 -3 110 -6 242 -4 203 -7 242 -21 253 -9
6 -22 12 -30 12 -8 0 -28 6 -45 14 -52 23 -76 25 -137 14 -51 -8 -59 -13 -65
-36 -3 -15 -8 -266 -11 -559 -4 -576 -1 -628 48 -680 48 -52 197 -90 246 -64
22 12 22 16 22 256 0 282 -2 275 86 275 66 0 62 13 67 -215 6 -230 17 -254
132 -285 58 -16 75 -16 148 5 31 8 28 -19 31 285 2 168 5 874 4 910 0 8 3 29
7 46 9 39 -19 72 -89 109 -40 20 -62 25 -120 24 -39 0 -78 -3 -86 -6z"/>
<!-- O -->	<path d="M14595 6016 c-17 -7 -45 -30 -64 -51 -45 -52 -134 -238 -172 -360
-63 -207 -63 -490 1 -644 67 -163 196 -279 311 -280 20 -1 52 -7 70 -15 87
-36 209 14 287 118 143 193 199 480 151 784 -20 128 -71 241 -146 323 -43 46
-67 63 -121 83 -154 57 -253 70 -317 42z m212 -298 c27 -30 61 -162 68 -266
15 -214 -77 -522 -156 -522 -26 0 -56 44 -68 100 -17 81 -15 313 4 405 32 153
91 305 118 305 8 0 23 -10 34 -22z"/>
<!-- B -->	<path d="M15580 6013 c-60 -4 -149 -23 -182 -39 -24 -12 -27 -21 -35 -91 -4
-43 -8 -303 -8 -578 0 -570 -6 -531 88 -585 99 -57 131 -65 201 -51 155 31
392 149 448 223 51 67 60 96 56 172 -4 98 -35 156 -116 220 -57 46 -60 50 -43
63 120 84 203 232 185 330 -25 141 -189 300 -342 332 -49 10 -144 12 -252 4z
m260 -268 c16 -9 32 -26 36 -39 14 -57 -69 -172 -154 -215 -66 -33 -75 -21
-67 93 8 128 13 154 33 165 26 16 119 13 152 -4z m-58 -524 c97 -61 100 -107
11 -171 -60 -43 -122 -65 -153 -55 -23 7 -23 10 -9 129 8 70 16 95 31 109 29
25 68 21 120 -12z"/>
<!-- O -->	<path d="M16534 6022 c-58 -28 -126 -135 -189 -297 -73 -190 -80 -232 -80
-465 0 -146 3 -173 23 -235 64 -193 190 -318 329 -330 27 -2 61 -8 76 -14 108
-41 239 24 326 164 40 63 85 181 113 292 32 132 30 339 -5 485 -43 176 -117
292 -219 344 -131 66 -298 91 -374 56z m246 -326 c43 -102 60 -274 40 -416
-20 -145 -78 -295 -125 -326 -25 -16 -27 -16 -51 7 -41 39 -56 114 -56 278 0
124 4 161 26 249 35 137 66 220 94 254 21 25 49 7 72 -46z"/>
<!-- K -->	<path d="M17917 6073 c-27 -31 -162 -303 -253 -510 -27 -63 -50 -85 -38 -37 4
14 7 114 8 221 1 189 0 195 -21 213 -23 18 -138 40 -228 43 l-50 2 -2 -175
c-1 -96 -4 -347 -7 -556 -2 -210 -7 -399 -10 -421 -9 -51 16 -84 81 -107 53
-19 67 -25 131 -51 40 -17 43 -17 61 -1 11 10 24 30 29 44 10 31 17 162 17
310 0 56 2 102 5 102 3 0 16 -20 28 -45 35 -72 140 -235 187 -290 23 -27 61
-61 84 -74 l43 -23 50 52 c27 28 56 67 64 86 14 34 14 36 -60 177 -40 78 -92
177 -116 220 l-42 78 23 62 c12 34 25 67 29 72 4 6 11 21 15 35 4 14 36 85 71
159 35 73 64 135 64 137 0 2 13 32 30 66 28 57 29 63 15 85 -9 13 -20 23 -25
23 -5 0 -37 27 -71 60 -64 63 -86 71 -112 43z"/>
<!-- E -->	<path d="M18270 5999 c-29 -53 -55 -1038 -31 -1144 14 -58 46 -99 116 -145 46
-30 54 -32 110 -27 33 4 87 14 120 23 33 8 94 22 135 30 207 38 200 36 207 62
10 41 -16 99 -75 167 l-57 65 -80 -5 c-44 -3 -99 -8 -123 -11 l-43 -5 3 88 3
88 85 16 c47 9 116 21 153 27 37 5 75 16 82 22 21 17 19 116 -3 162 -32 68
-57 79 -195 86 l-122 7 0 92 c0 51 5 97 10 102 11 10 120 26 245 36 121 9 139
36 105 148 -37 122 -61 130 -393 132 -217 1 -244 -1 -252 -16z"/>
<!-- N -->	<path d="M19634 6084 c-52 -12 -55 -27 -55 -236 0 -106 3 -248 7 -315 4 -76 3
-123 -3 -123 -5 0 -22 42 -38 93 -15 50 -37 119 -47 152 -11 33 -21 68 -23 78
-2 9 -11 45 -21 80 -9 34 -19 72 -21 84 -8 33 -32 50 -103 73 -133 44 -195 43
-224 -3 -17 -26 -25 -225 -32 -799 -6 -435 -5 -448 57 -472 95 -38 178 -27
215 29 15 24 17 50 15 218 -1 106 -6 220 -10 254 -12 100 3 98 51 -7 59 -131
197 -402 212 -418 17 -17 160 -42 203 -35 19 3 38 13 42 22 5 9 8 302 7 651
l-1 635 -40 20 c-39 19 -143 29 -191 19z"/>
		</g>
		<g id="donbosco">
		<!-- Don Bosco -->
<!-- D -->	<path d="M4867 5971 l-25 -30 -6 -308 c-4 -169 -9 -375 -12 -458 -7 -192 -7
-169 -2 -320 l4 -130 44 -17 c25 -9 98 -31 163 -49 133 -36 130 -37 225 32
155 113 312 337 356 506 23 88 19 254 -8 368 -23 97 -97 227 -163 285 -104 92
-278 150 -449 150 -101 0 -103 0 -127 -29z m375 -363 c41 -46 52 -91 52 -208
-1 -116 -21 -187 -91 -322 -40 -77 -60 -86 -65 -30 -4 50 11 573 17 591 8 21
56 4 87 -31z"/>
<!-- O -->	<path d="M6015 5990 c-57 -23 -158 -189 -215 -354 -31 -91 -70 -305 -70 -388
0 -147 48 -333 109 -421 33 -49 101 -113 151 -144 35 -21 132 -41 242 -50 47
-4 65 -1 95 18 120 71 204 208 265 432 20 70 23 106 22 247 0 195 -20 292 -83
417 -62 122 -131 180 -270 223 -96 30 -201 39 -246 20z m243 -364 c41 -119 51
-323 22 -436 -5 -19 -14 -57 -21 -85 -18 -72 -67 -173 -91 -186 -40 -21 -66
-3 -85 59 -26 82 -25 354 1 467 23 99 72 234 93 258 26 28 54 1 81 -77z"/>
<!-- N-->	<path d="M7313 6015 c-19 -8 -35 -23 -38 -37 -6 -24 -2 -185 11 -455 5 -103 4
-153 -3 -153 -16 0 -58 122 -124 354 -21 76 -44 145 -50 152 -5 7 -49 27 -97
44 -101 37 -181 38 -207 4 -21 -29 -24 -65 -31 -514 -11 -634 -8 -725 24 -753
16 -15 91 -40 122 -42 29 -2 75 18 103 44 l29 26 -4 268 c-1 147 -1 267 2 267
3 0 16 -24 29 -52 13 -29 60 -125 104 -213 44 -88 88 -176 98 -196 22 -44 37
-57 74 -63 17 -3 54 -10 84 -16 67 -12 113 -5 129 21 18 29 27 1258 10 1281
-33 42 -197 63 -265 33z"/>
<!-- B -->	<path d="M8470 5980 c-112 -11 -178 -35 -186 -66 -7 -29 -9 -71 -19 -639 -10
-536 -10 -537 106 -596 95 -47 135 -54 220 -33 76 18 253 92 301 125 14 11 30
19 36 19 18 0 94 91 114 138 17 37 20 59 15 113 -9 106 -47 167 -149 241 l-23
17 61 58 c76 72 97 103 122 178 19 54 19 66 8 120 -18 85 -38 118 -121 201
-103 103 -155 125 -300 129 -60 2 -144 0 -185 -5z m301 -276 c21 -19 24 -58 8
-101 -14 -37 -94 -118 -141 -143 -56 -29 -69 -19 -64 49 2 31 5 88 5 128 l1
72 33 10 c45 14 135 6 158 -15z m-92 -500 c43 -21 87 -64 93 -91 9 -35 -25
-76 -88 -110 -67 -35 -113 -47 -133 -34 -20 13 -1 204 24 231 22 24 61 26 104
4z"/>
<!-- O -->	<path d="M9464 6001 c-68 -17 -108 -65 -174 -203 -62 -132 -107 -270 -115
-350 -3 -35 -10 -106 -16 -158 -13 -112 5 -239 49 -350 63 -162 173 -263 307
-281 28 -4 80 -13 116 -20 61 -12 68 -11 111 10 95 46 171 132 230 261 33 69
37 84 69 200 31 114 28 351 -6 479 -47 175 -126 290 -235 343 -113 54 -268 86
-336 69z m203 -326 c51 -90 72 -320 43 -474 -16 -91 -66 -222 -98 -261 -34
-40 -68 -37 -94 8 -16 26 -51 199 -43 212 1 3 6 55 9 115 4 61 12 128 17 150
23 92 30 113 54 180 46 127 71 142 112 70z"/>
<!-- S -->	<path d="M10444 5984 c-106 -64 -177 -150 -221 -270 -26 -72 -32 -192 -12
-241 47 -116 127 -217 242 -308 21 -16 56 -48 78 -70 64 -66 62 -138 -5 -150
-60 -12 -128 31 -180 113 -30 47 -70 62 -113 39 -88 -45 -93 -50 -93 -93 0
-46 30 -122 68 -172 14 -18 52 -54 86 -80 102 -79 164 -102 275 -102 154 0
266 91 316 256 29 96 12 203 -47 290 -17 25 -72 79 -123 119 -102 82 -164 147
-190 202 -33 68 -1 183 52 191 18 3 21 -4 26 -73 6 -88 31 -145 71 -164 15 -7
57 -18 92 -24 58 -10 66 -9 91 9 42 31 56 84 49 183 -6 99 -27 161 -73 218
-27 34 -60 55 -157 103 -67 33 -134 60 -147 60 -14 0 -52 -16 -85 -36z"/>
<!-- C -->	<path d="M11285 6004 c-37 -8 -103 -80 -148 -161 -41 -74 -113 -280 -140 -403
-32 -141 -39 -239 -23 -330 22 -127 24 -134 58 -207 40 -85 131 -177 213 -217
49 -24 75 -29 160 -34 93 -4 107 -3 151 19 99 49 195 172 240 311 32 95 23
130 -43 178 -77 56 -91 62 -131 55 -35 -6 -38 -10 -66 -81 -16 -41 -44 -95
-63 -119 -34 -45 -96 -85 -131 -85 -24 0 -56 36 -71 79 -16 49 -14 221 5 299
56 243 110 402 134 402 19 0 33 -47 38 -129 7 -118 28 -158 95 -180 28 -10 50
-10 88 -2 92 20 89 14 89 163 0 241 -47 351 -180 419 -37 19 -63 23 -150 25
-58 1 -114 0 -125 -2z"/>
<!-- O -->	<path d="M12172 6011 c-53 -14 -97 -65 -156 -182 -53 -104 -119 -292 -131
-374 -14 -98 -17 -278 -5 -352 23 -147 88 -276 177 -353 50 -43 133 -80 178
-80 20 0 45 -5 56 -10 10 -6 49 -11 87 -12 64 -2 69 0 127 42 66 48 110 101
151 182 66 131 103 271 109 417 4 79 -6 228 -18 276 -3 11 -10 43 -17 70 -27
122 -117 253 -211 308 -87 51 -272 87 -347 68z m213 -326 c12 -22 25 -54 28
-70 3 -17 10 -50 16 -75 17 -77 7 -294 -17 -386 -43 -162 -98 -248 -145 -227
-24 11 -38 35 -58 102 -18 58 -17 298 1 371 26 110 63 226 87 278 30 65 54 67
88 7z"/>
		</g>
	</g>
</svg>