<?xml version="1.0" standalone="no"?>
<!DOCTYPE svg PUBLIC "-//W3C//DTD SVG 20010904//EN"
 "http://www.w3.org/TR/2001/REC-SVG-20010904/DTD/svg10.dtd">
<svg version="1.0" xmlns="http://www.w3.org/2000/svg"
 width="260.000000pt" height="260.000000pt" viewBox="0 0 260.000000 260.000000"
 preserveAspectRatio="xMidYMid meet">
<metadata>
Created by potrace 1.11, written by Peter Selinger 2001-2013
</metadata>
<g transform="translate(0.000000,260.000000) scale(0.100000,-0.100000)"
fill="#000000" stroke="none">
<path d="M1320 2512 c-36 -10 -97 -34 -135 -53 -39 -20 -85 -39 -103 -42 -18
-4 -39 -12 -47 -19 -36 -33 -50 -43 -60 -44 -6 -1 -33 -16 -60 -33 -27 -17
-54 -31 -60 -31 -21 0 -246 -158 -252 -177 -2 -6 5 -16 16 -22 16 -9 28 -4 70
29 29 23 61 40 76 40 14 0 25 4 25 10 0 5 19 14 43 21 23 6 47 15 53 20 28 23
111 59 135 59 15 0 32 -6 38 -14 19 -23 39 -117 40 -196 l2 -75 -37 -20 c-20
-11 -47 -18 -59 -17 -12 2 -57 -9 -99 -23 -43 -14 -89 -25 -101 -25 -26 0 -47
-21 -37 -37 4 -7 32 -13 62 -14 30 0 70 -6 88 -12 25 -9 38 -8 53 1 16 10 20
10 25 -3 4 -10 13 -14 28 -10 11 4 29 9 39 11 31 9 18 -21 -15 -34 -58 -24
-163 -80 -199 -107 -8 -6 -27 -17 -42 -25 -16 -8 -41 -27 -58 -42 -16 -15 -33
-28 -37 -28 -5 0 -17 -9 -28 -21 -10 -12 -32 -30 -47 -41 -27 -20 -29 -20 -42
-2 -14 18 -17 16 -60 -31 -25 -27 -58 -66 -73 -85 -14 -19 -47 -60 -73 -90
-25 -30 -54 -70 -65 -87 -10 -18 -22 -33 -26 -33 -4 0 -8 -6 -8 -13 0 -8 12
-14 30 -14 24 0 38 10 65 43 19 23 35 47 35 53 0 6 7 11 15 11 18 0 18 3 4
-60 -9 -40 -17 -53 -40 -66 -24 -12 -28 -19 -23 -39 5 -22 3 -25 -19 -25 -23
0 -27 -5 -33 -47 -4 -27 -13 -57 -19 -68 -17 -27 -26 -94 -30 -235 -4 -112 -3
-121 20 -154 13 -19 21 -43 19 -53 -5 -19 29 -43 61 -43 8 0 21 -14 30 -30 9
-17 21 -30 28 -30 7 0 24 -13 40 -29 15 -16 40 -32 56 -36 16 -3 31 -14 34
-25 7 -29 52 -53 75 -41 16 8 21 6 32 -13 7 -14 25 -27 42 -30 28 -5 152 -59
209 -91 14 -8 29 -11 33 -7 4 4 14 -1 21 -12 9 -12 21 -17 35 -13 11 3 23 1
26 -5 3 -5 15 -7 26 -5 10 3 33 1 51 -4 27 -8 35 -6 49 11 13 16 26 20 55 18
l38 -4 -27 -12 c-29 -12 -36 -26 -18 -37 18 -11 70 19 76 43 5 17 13 22 40 22
18 0 45 5 59 12 20 9 28 9 38 -1 18 -19 -19 -43 -58 -36 -39 7 -66 -8 -47 -27
20 -20 179 -16 219 5 18 9 42 17 55 17 13 0 29 9 36 20 7 11 21 20 31 20 11 0
26 7 35 15 8 8 22 15 31 15 16 0 16 -2 1 -25 -20 -31 -20 -35 1 -35 10 0 44
27 75 61 32 33 62 58 67 55 5 -3 14 1 21 9 7 8 26 15 43 15 18 0 50 13 79 33
39 26 48 38 48 62 1 65 48 165 87 186 29 16 109 119 129 168 8 20 14 49 12 66
-3 26 -7 30 -30 28 -32 -2 -34 5 -13 33 20 27 19 44 -4 44 -11 0 -28 -15 -41
-35 -12 -20 -35 -42 -52 -51 -16 -8 -36 -30 -43 -47 -7 -18 -23 -41 -35 -52
-20 -18 -23 -18 -68 -2 -26 9 -57 17 -69 17 -24 0 -73 -54 -98 -107 -19 -40
-32 -48 -50 -33 -20 17 -19 38 6 89 18 38 19 45 6 58 -12 13 -19 8 -53 -37
-22 -28 -58 -74 -82 -101 -35 -41 -41 -54 -31 -65 17 -21 -25 -64 -63 -64 -17
0 -42 -12 -65 -33 -72 -64 -99 -73 -233 -86 -69 -7 -141 -15 -160 -18 -93 -16
-225 1 -294 38 -66 36 -192 169 -216 230 -56 140 -55 311 2 449 16 40 38 129
38 156 0 13 7 27 15 30 8 4 15 12 15 19 0 17 75 94 117 120 18 11 84 55 149
98 64 43 122 76 130 73 10 -4 14 -22 14 -59 0 -29 4 -57 8 -62 5 -6 14 -30 22
-55 21 -74 49 -130 65 -130 20 0 20 44 0 100 -20 58 -4 256 23 276 9 7 20 14
23 14 4 0 33 16 65 35 32 19 68 35 80 35 13 0 26 5 29 11 4 6 19 7 37 4 23 -5
35 -2 54 16 21 19 24 20 30 5 5 -12 20 -16 69 -16 47 0 64 -4 69 -15 4 -10 19
-15 48 -15 24 0 94 -9 156 -21 121 -23 146 -18 140 25 -2 16 -12 22 -43 27
-22 3 -60 13 -85 22 -25 9 -53 17 -63 17 -10 0 -16 4 -13 9 3 4 73 8 156 7
106 -1 150 2 150 10 0 7 -21 15 -47 19 -26 4 -56 13 -67 21 -12 8 -45 14 -81
14 -34 0 -66 5 -72 11 -8 8 -13 8 -17 0 -4 -6 -20 -11 -36 -11 -22 0 -33 7
-45 29 -19 38 -33 42 -161 45 -105 3 -168 -8 -183 -33 -9 -14 -61 -5 -61 10 0
5 -7 9 -15 9 -22 0 -18 -37 4 -50 27 -14 104 -13 119 2 10 10 14 8 18 -10 7
-26 21 -28 46 -5 14 12 21 14 30 5 20 -20 1 -40 -44 -46 -121 -16 -130 -18
-135 -37 -6 -23 -12 -24 -28 -3 -18 25 -59 1 -52 -32 5 -28 -9 -31 -41 -8 -42
29 -22 99 31 106 15 1 26 8 25 13 -2 6 -16 9 -32 7 -15 -2 -26 0 -24 5 33 72
48 87 145 153 103 69 123 79 123 60 0 -5 -7 -10 -16 -10 -9 0 -14 -6 -11 -12
6 -17 37 -11 63 13 11 10 30 19 42 19 27 0 121 115 122 148 0 13 5 43 11 66 9
37 8 50 -10 89 -12 25 -21 50 -21 54 0 10 -30 30 -90 61 -63 32 -182 38 -270
14z m217 -58 c54 -17 103 -66 103 -101 0 -27 -20 -32 -20 -5 -1 23 -24 52 -42
52 -18 0 -37 -61 -35 -112 1 -35 -23 -78 -45 -78 -5 0 -24 -15 -43 -34 -40
-40 -103 -85 -170 -121 -26 -14 -50 -25 -51 -25 -2 0 -4 10 -4 23 0 12 -9 47
-20 77 -11 30 -20 64 -20 75 0 11 -14 37 -31 58 l-30 37 28 25 c15 14 48 35
73 46 25 11 75 35 112 53 47 24 70 30 77 23 8 -8 16 -6 28 6 21 21 30 21 90 1z
m138 -574 c17 0 36 -4 43 -8 24 -16 -16 -35 -78 -38 l-60 -3 0 31 c0 29 2 30
33 24 17 -4 46 -6 62 -6z m-593 -158 c6 -39 -5 -77 -22 -77 -10 0 -15 10 -15
30 0 22 -6 31 -25 36 -14 4 -18 7 -9 8 9 1 22 8 29 16 19 23 37 18 42 -13z
m-62 -73 c0 -12 -7 -19 -19 -19 -28 0 -37 21 -16 36 22 16 35 10 35 -17z m-60
-16 c-1 -5 -14 -23 -30 -42 -18 -22 -34 -32 -44 -28 -26 10 -18 36 17 57 33
20 57 26 57 13z m-70 -123 c0 -5 -4 -10 -10 -10 -5 0 -10 5 -10 10 0 6 5 10
10 10 6 0 10 -4 10 -10z m-100 -15 c0 -8 -2 -15 -4 -15 -2 0 -12 -3 -21 -7
-15 -5 -16 -3 -6 15 13 25 31 29 31 7z m-19 -88 c-15 -15 -24 -18 -32 -10 -8
8 -4 15 12 26 31 22 46 9 20 -16z m1135 -834 c-11 -11 -19 6 -11 24 8 17 8 17
12 0 3 -10 2 -21 -1 -24z m-161 -35 c-4 -24 -12 -52 -19 -63 -10 -18 -11 -17
-14 16 -3 40 12 89 29 89 7 0 8 -14 4 -42z m-105 -118 c0 -11 -7 -20 -15 -20
-15 0 -21 21 -8 33 12 13 23 7 23 -13z m365 -9 c-3 -6 -11 -11 -17 -11 -6 0
-6 6 2 15 14 17 26 13 15 -4z m-255 -45 c0 -3 -4 -8 -10 -11 -5 -3 -10 -1 -10
4 0 6 5 11 10 11 6 0 10 -2 10 -4z"/>
<path d="M2126 1722 c-9 -14 31 -45 49 -38 25 9 13 41 -17 44 -14 2 -29 -1
-32 -6z"/>
<path d="M2250 1645 c-11 -13 -8 -21 16 -48 36 -40 46 -47 56 -41 14 9 9 36
-10 53 -10 9 -21 24 -25 34 -8 21 -21 22 -37 2z"/>
<path d="M2295 1524 c-19 -19 -4 -44 27 -44 24 0 34 26 18 45 -16 19 -25 19
-45 -1z"/>
</g>
</svg>
